<svg xmlns="http://www.w3.org/2000/svg" width="1119.381" height="161.664" viewBox="0 0 1119.381 161.664">
  <g id="Your_All_time_fav" data-name="Your All time fav" transform="translate(-290.085 -4668.838)">
    <g id="Group_98" data-name="Group 98" transform="translate(283.686 4661.542)">
      <path id="Path_189" data-name="Path 189" d="M58.23-59.4H42.48L34.11-43.11l-4.5,9.9-4.41-9.9L16.83-59.4H.81L21.78-21.69V0H37.26V-21.69Z" transform="matrix(0.965, 0.262, -0.262, 0.965, 15.088, 81.07)" fill="#fff" stroke="#bcebf8" stroke-width="3"/>
      <path id="Path_190" data-name="Path 190" d="M26.789-45.39c-14.863,0-23.5,8.544-23.5,23.14S11.926.89,26.789.89s23.5-8.544,23.5-23.14S41.652-45.39,26.789-45.39Zm0,10.769c5.607,0,8.366,3.649,8.366,12.371S32.4-9.879,26.789-9.879s-8.366-3.649-8.366-12.371S21.182-34.621,26.789-34.621Z" transform="matrix(0.892, 0.452, -0.452, 0.892, 58.272, 91.007)" fill="#fff" stroke="#bcebf8" stroke-width="3"/>
      <path id="Path_191" data-name="Path 191" d="M34.621-44.5v23.585c0,7.12-3.471,10.235-8.188,10.235-3.916,0-6.141-1.869-6.141-7.921V-44.5H5.162v29.726C5.162-3.56,11.3.89,20.381.89c7.209,0,12.638-2.937,15.4-9.167L36.223,0H49.751V-44.5Z" transform="matrix(0.889, 0.457, -0.457, 0.889, 107.655, 117.315)" fill="#fff" stroke="#bcebf8" stroke-width="3"/>
      <path id="Path_192" data-name="Path 192" d="M32.93-45.39c-6.942,0-11.3,3.827-13.528,10.413L18.779-44.5H5.429V0h15.13V-22.428c0-7.031,4.628-10.5,9.968-10.5a11.533,11.533,0,0,1,5.607,1.335l1.6-12.816A10.239,10.239,0,0,0,32.93-45.39Z" transform="matrix(0.952, 0.305, -0.305, 0.952, 167.312, 146.844)" fill="#fff" stroke="#bcebf8" stroke-width="3"/>
      <path id="Path_193" data-name="Path 193" transform="translate(202.921 160.12) rotate(9.407)" fill="#fff" stroke="#bcebf8" stroke-width="3"/>
      <path id="Path_194" data-name="Path 194" d="M47.872-8.536q-3.168,0-3.168-3.432V-27.984c0-11.352-7.48-16.9-21.032-16.9C11.7-44.88,4.84-39.688,3.344-31.328l12.144,3.52c.88-5.1,3.96-6.776,8.184-6.776,3.96,0,6.248,2.552,6.248,6.512v1.584l-9.944,1.936C7.48-22.088,2.816-17.424,2.816-10.12c0,7.128,4.928,11,13.64,11,8.1,0,13.2-2.552,15.664-6.776C33.44-1.144,37.576.88,43.472.88A12.265,12.265,0,0,0,49.456-.528L50.6-8.888A8.554,8.554,0,0,1,47.872-8.536ZM21.912-8.8c-2.728,0-4.312-1.32-4.312-3.784s1.5-3.7,5.192-4.576l7.128-1.672v3.784C29.92-11,25.608-8.8,21.912-8.8Z" transform="translate(249.621 165.346) rotate(-0.473)" fill="#fff" stroke="#bcebf8" stroke-width="3"/>
      <path id="Path_195" data-name="Path 195" d="M19.923-61.944H5.133v49.068C5.133-3.219,9.048.87,18.357.87A19.04,19.04,0,0,0,27.405-1.3l.957-9.135a12.532,12.532,0,0,1-4.437.783c-3.045,0-4-1.566-4-5.394Z" transform="translate(304.94 162.817) rotate(-6.64)" fill="#fff" stroke="#bcebf8" stroke-width="3"/>
      <path id="Path_196" data-name="Path 196" d="M19.923-61.944H5.133v49.068C5.133-3.219,9.048.87,18.357.87A19.04,19.04,0,0,0,27.405-1.3l.957-9.135a12.532,12.532,0,0,1-4.437.783c-3.045,0-4-1.566-4-5.394Z" transform="matrix(0.977, -0.213, 0.213, 0.977, 340.221, 158.496)" fill="#fff" stroke="#bcebf8" stroke-width="3"/>
      <path id="Path_197" data-name="Path 197" d="M39.336-29.656H7.128v12.232H39.336Z" transform="translate(372.891 152.721) rotate(-19.233)" fill="#fff" stroke="#bcebf8" stroke-width="3"/>
      <path id="Path_198" data-name="Path 198" d="M36.223-11.837a10.365,10.365,0,0,1-6.408,1.958c-3.738,0-5.874-1.691-5.874-5.963V-33.731h13.35V-44.5H23.941V-58.651L8.811-54.468V-44.5H1.157v10.769H8.811V-13.35C8.9-3.026,15.13.89,25.187.89,29.815.89,34.8-.445,37.736-2.492Z" transform="translate(426.164 133.93) rotate(-21.946)" fill="#fff" stroke="#bcebf8" stroke-width="3"/>
      <path id="Path_199" data-name="Path 199" d="M12.7-48.546c6,0,8.613-2.175,8.613-7.047,0-4.959-2.61-7.134-8.613-7.134s-8.613,2.175-8.613,7.134C4.089-50.721,6.7-48.546,12.7-48.546ZM20.1-43.5H5.307V0H20.1Z" transform="translate(465.845 116.232) rotate(-16.939)" fill="#fff" stroke="#bcebf8" stroke-width="3"/>
      <path id="Path_200" data-name="Path 200" d="M63.368-45.39c-6.5,0-12.015,3.115-14.863,8.989C46.28-42.364,40.94-45.39,34.354-45.39c-6.764,0-12.1,3.2-14.952,9.434L18.957-44.5H5.429V0h15.13V-23.5c0-7.3,3.649-10.324,7.832-10.324,3.56,0,6.052,2.047,6.052,7.654V0h15.13V-23.763c0-6.675,3.293-10.057,7.832-10.057,3.649,0,6.052,2.047,6.052,7.654V0H78.409l.178-29.637C78.676-40.05,72.09-45.39,63.368-45.39Z" transform="translate(486.586 109.081) rotate(-7.521)" fill="#fff" stroke="#bcebf8" stroke-width="3"/>
      <path id="Path_201" data-name="Path 201" d="M49.868-23.387c0-14.378-7.917-23.023-22.75-23.023-15.2,0-23.751,8.645-23.751,23.66S12.012.91,27.937.91c10.556,0,18.291-4,20.93-11.921l-12.558-4c-1,3.185-3.822,5.005-8.372,5.005-5.187,0-8.554-2.366-9.555-8.281H49.413A28.661,28.661,0,0,0,49.868-23.387ZM27.027-35.581c4.823,0,7.644,3.094,8.463,8.918H18.382C19.2-32.851,22.113-35.581,27.027-35.581Z" transform="matrix(1, 0.013, -0.013, 1, 568.316, 101.583)" fill="#fff" stroke="#bcebf8" stroke-width="3"/>
      <path id="Path_202" data-name="Path 202" transform="matrix(0.995, 0.095, -0.095, 0.995, 619.491, 100.632)" fill="#fff" stroke="#bcebf8" stroke-width="3"/>
      <path id="Path_203" data-name="Path 203" d="M22.695-47.615c0-4.628,2.759-6.408,7.387-6.408A7.825,7.825,0,0,1,35.155-52.6l1.513-9.434c-2.047-1.6-5.607-2.581-10.235-2.581-10.057,0-17.978,4.806-17.978,16.02V-44.5H1.335v10.769h7.12V0h15.13V-33.731H36.223V-44.5H22.695Z" transform="translate(647.421 102.694) rotate(11.843)" fill="#fff" stroke="#bcebf8" stroke-width="3"/>
      <path id="Path_204" data-name="Path 204" d="M48.416-8.633q-3.2,0-3.2-3.471V-28.3c0-11.481-7.565-17.088-21.271-17.088-12.1,0-19.046,5.251-20.559,13.706l12.282,3.56c.89-5.162,4.005-6.853,8.277-6.853,4.005,0,6.319,2.581,6.319,6.586v1.6L20.2-24.831C7.565-22.339,2.848-17.622,2.848-10.235,2.848-3.026,7.832.89,16.643.89c8.188,0,13.35-2.581,15.842-6.853C33.82-1.157,38,.89,43.966.89A12.4,12.4,0,0,0,50.018-.534l1.157-8.455A8.651,8.651,0,0,1,48.416-8.633ZM22.161-8.9C19.4-8.9,17.8-10.235,17.8-12.727s1.513-3.738,5.251-4.628l7.209-1.691v3.827C30.26-11.125,25.9-8.9,22.161-8.9Z" transform="translate(682.292 111.15) rotate(20.021)" fill="#fff" stroke="#bcebf8" stroke-width="3"/>
      <path id="Path_205" data-name="Path 205" d="M33.968-44,24.728-9.5,15.664-44H-.088L15.752,0H33.616l15.84-44Z" transform="matrix(0.931, 0.365, -0.365, 0.931, 730.451, 128.489)" fill="#fff" stroke="#bcebf8" stroke-width="3"/>
      <path id="Path_206" data-name="Path 206" d="M26.789-45.39c-14.863,0-23.5,8.544-23.5,23.14S11.926.89,26.789.89s23.5-8.544,23.5-23.14S41.652-45.39,26.789-45.39Zm0,10.769c5.607,0,8.366,3.649,8.366,12.371S32.4-9.879,26.789-9.879s-8.366-3.649-8.366-12.371S21.182-34.621,26.789-34.621Z" transform="translate(785.751 151.239) rotate(12.332)" fill="#fff" stroke="#bcebf8" stroke-width="3"/>
      <path id="Path_207" data-name="Path 207" d="M34.621-44.5v23.585c0,7.12-3.471,10.235-8.188,10.235-3.916,0-6.141-1.869-6.141-7.921V-44.5H5.162v29.726C5.162-3.56,11.3.89,20.381.89c7.209,0,12.638-2.937,15.4-9.167L36.223,0H49.751V-44.5Z" transform="translate(849.467 164.071) rotate(2.799)" fill="#fff" stroke="#bcebf8" stroke-width="3"/>
      <path id="Path_208" data-name="Path 208" d="M32.93-45.39c-6.942,0-11.3,3.827-13.528,10.413L18.779-44.5H5.429V0h15.13V-22.428c0-7.031,4.628-10.5,9.968-10.5a11.533,11.533,0,0,1,5.607,1.335l1.6-12.816A10.239,10.239,0,0,0,32.93-45.39Z" transform="matrix(0.995, -0.1, 0.1, 0.995, 915.104, 166.616)" fill="#fff" stroke="#bcebf8" stroke-width="3"/>
      <path id="Path_209" data-name="Path 209" d="M12.7-48.546c6,0,8.613-2.175,8.613-7.047,0-4.959-2.61-7.134-8.613-7.134s-8.613,2.175-8.613,7.134C4.089-50.721,6.7-48.546,12.7-48.546ZM20.1-43.5H5.307V0H20.1Z" transform="matrix(0.968, -0.25, 0.25, 0.968, 962.554, 158.749)" fill="#fff" stroke="#bcebf8" stroke-width="3"/>
      <path id="Path_210" data-name="Path 210" d="M35.816-11.7A10.249,10.249,0,0,1,29.48-9.768c-3.7,0-5.808-1.672-5.808-5.9V-33.352h13.2V-44h-13.2V-57.992L8.712-53.856V-44H1.144v10.648H8.712V-13.2C8.8-2.992,14.96.88,24.9.88c4.576,0,9.5-1.32,12.408-3.344Z" transform="translate(996.464 150.845) rotate(-22.649)" fill="#fff" stroke="#bcebf8" stroke-width="3"/>
      <path id="Path_211" data-name="Path 211" d="M49.868-23.387c0-14.378-7.917-23.023-22.75-23.023-15.2,0-23.751,8.645-23.751,23.66S12.012.91,27.937.91c10.556,0,18.291-4,20.93-11.921l-12.558-4c-1,3.185-3.822,5.005-8.372,5.005-5.187,0-8.554-2.366-9.555-8.281H49.413A28.661,28.661,0,0,0,49.868-23.387ZM27.027-35.581c4.823,0,7.644,3.094,8.463,8.918H18.382C19.2-32.851,22.113-35.581,27.027-35.581Z" transform="matrix(0.878, -0.479, 0.479, 0.878, 1039.958, 135.386)" fill="#fff" stroke="#bcebf8" stroke-width="3"/>
      <path id="Path_212" data-name="Path 212" d="M23.316.87C37.323.87,44.022-5.394,44.022-13.4c0-7.482-5.133-11.571-18.009-13.833-6.09-1.131-8-2.262-8-4s2.262-3.306,6.612-3.306c5.22,0,9.048,1.74,11.832,5.829l7.656-7.482c-3.741-5.133-9.483-8.178-19.923-8.178-14.181,0-20.967,7.308-20.967,14.442S8-18.531,21.228-15.921c5.829,1.218,7.917,2.262,7.917,3.915,0,1.827-2.436,3.045-6.525,3.045-5.568,0-10.266-1.827-12.876-6.177L2.088-6.786C6.525-1.392,13.746.87,23.316.87Z" transform="translate(1082.858 106.372) rotate(-24.491)" fill="#fff" stroke="#bcebf8" stroke-width="3"/>
    </g>
    <g id="Group_98-2" data-name="Group 98" transform="translate(280.377 4653.271)">
      <path id="Path_165" data-name="Path 165" d="M58.23-59.4H42.48L34.11-43.11l-4.5,9.9-4.41-9.9L16.83-59.4H.81L21.78-21.69V0H37.26V-21.69Z" transform="matrix(0.965, 0.262, -0.262, 0.965, 17.088, 81.07)" fill="#fff" stroke="#bda3ef" stroke-width="3"/>
      <path id="Path_166" data-name="Path 166" d="M26.789-45.39c-14.863,0-23.5,8.544-23.5,23.14S11.926.89,26.789.89s23.5-8.544,23.5-23.14S41.652-45.39,26.789-45.39Zm0,10.769c5.607,0,8.366,3.649,8.366,12.371S32.4-9.879,26.789-9.879s-8.366-3.649-8.366-12.371S21.182-34.621,26.789-34.621Z" transform="matrix(0.892, 0.452, -0.452, 0.892, 60.272, 91.007)" fill="#fff" stroke="#bda3ef" stroke-width="3"/>
      <path id="Path_167" data-name="Path 167" d="M34.621-44.5v23.585c0,7.12-3.471,10.235-8.188,10.235-3.916,0-6.141-1.869-6.141-7.921V-44.5H5.162v29.726C5.162-3.56,11.3.89,20.381.89c7.209,0,12.638-2.937,15.4-9.167L36.223,0H49.751V-44.5Z" transform="matrix(0.889, 0.457, -0.457, 0.889, 109.655, 117.315)" fill="#fff" stroke="#bda3ef" stroke-width="3"/>
      <path id="Path_168" data-name="Path 168" d="M32.93-45.39c-6.942,0-11.3,3.827-13.528,10.413L18.779-44.5H5.429V0h15.13V-22.428c0-7.031,4.628-10.5,9.968-10.5a11.533,11.533,0,0,1,5.607,1.335l1.6-12.816A10.239,10.239,0,0,0,32.93-45.39Z" transform="matrix(0.952, 0.305, -0.305, 0.952, 169.312, 146.844)" fill="#fff" stroke="#bda3ef" stroke-width="3"/>
      <path id="Path_169" data-name="Path 169" transform="translate(202.921 160.12) rotate(9.407)" fill="#fff" stroke="#bda3ef" stroke-width="3"/>
      <path id="Path_170" data-name="Path 170" d="M47.872-8.536q-3.168,0-3.168-3.432V-27.984c0-11.352-7.48-16.9-21.032-16.9C11.7-44.88,4.84-39.688,3.344-31.328l12.144,3.52c.88-5.1,3.96-6.776,8.184-6.776,3.96,0,6.248,2.552,6.248,6.512v1.584l-9.944,1.936C7.48-22.088,2.816-17.424,2.816-10.12c0,7.128,4.928,11,13.64,11,8.1,0,13.2-2.552,15.664-6.776C33.44-1.144,37.576.88,43.472.88A12.265,12.265,0,0,0,49.456-.528L50.6-8.888A8.554,8.554,0,0,1,47.872-8.536ZM21.912-8.8c-2.728,0-4.312-1.32-4.312-3.784s1.5-3.7,5.192-4.576l7.128-1.672v3.784C29.92-11,25.608-8.8,21.912-8.8Z" transform="translate(251.621 165.346) rotate(-0.473)" fill="#fff" stroke="#bda3ef" stroke-width="3"/>
      <path id="Path_171" data-name="Path 171" d="M19.923-61.944H5.133v49.068C5.133-3.219,9.048.87,18.357.87A19.04,19.04,0,0,0,27.405-1.3l.957-9.135a12.532,12.532,0,0,1-4.437.783c-3.045,0-4-1.566-4-5.394Z" transform="translate(304.94 162.817) rotate(-6.64)" fill="#fff" stroke="#bda3ef" stroke-width="3"/>
      <path id="Path_172" data-name="Path 172" d="M19.923-61.944H5.133v49.068C5.133-3.219,9.048.87,18.357.87A19.04,19.04,0,0,0,27.405-1.3l.957-9.135a12.532,12.532,0,0,1-4.437.783c-3.045,0-4-1.566-4-5.394Z" transform="matrix(0.977, -0.213, 0.213, 0.977, 340.221, 158.496)" fill="#fff" stroke="#bda3ef" stroke-width="3"/>
      <path id="Path_173" data-name="Path 173" d="M39.336-29.656H7.128v12.232H39.336Z" transform="translate(372.891 152.721) rotate(-19.233)" fill="#fff" stroke="#bda3ef" stroke-width="3"/>
      <path id="Path_174" data-name="Path 174" d="M36.223-11.837a10.365,10.365,0,0,1-6.408,1.958c-3.738,0-5.874-1.691-5.874-5.963V-33.731h13.35V-44.5H23.941V-58.651L8.811-54.468V-44.5H1.157v10.769H8.811V-13.35C8.9-3.026,15.13.89,25.187.89,29.815.89,34.8-.445,37.736-2.492Z" transform="translate(426.164 133.93) rotate(-21.946)" fill="#fff" stroke="#bda3ef" stroke-width="3"/>
      <path id="Path_175" data-name="Path 175" d="M12.7-48.546c6,0,8.613-2.175,8.613-7.047,0-4.959-2.61-7.134-8.613-7.134s-8.613,2.175-8.613,7.134C4.089-50.721,6.7-48.546,12.7-48.546ZM20.1-43.5H5.307V0H20.1Z" transform="translate(465.845 116.232) rotate(-16.939)" fill="#fff" stroke="#bda3ef" stroke-width="3"/>
      <path id="Path_176" data-name="Path 176" d="M63.368-45.39c-6.5,0-12.015,3.115-14.863,8.989C46.28-42.364,40.94-45.39,34.354-45.39c-6.764,0-12.1,3.2-14.952,9.434L18.957-44.5H5.429V0h15.13V-23.5c0-7.3,3.649-10.324,7.832-10.324,3.56,0,6.052,2.047,6.052,7.654V0h15.13V-23.763c0-6.675,3.293-10.057,7.832-10.057,3.649,0,6.052,2.047,6.052,7.654V0H78.409l.178-29.637C78.676-40.05,72.09-45.39,63.368-45.39Z" transform="translate(486.586 109.081) rotate(-7.521)" fill="#fff" stroke="#bda3ef" stroke-width="3"/>
      <path id="Path_177" data-name="Path 177" d="M49.868-23.387c0-14.378-7.917-23.023-22.75-23.023-15.2,0-23.751,8.645-23.751,23.66S12.012.91,27.937.91c10.556,0,18.291-4,20.93-11.921l-12.558-4c-1,3.185-3.822,5.005-8.372,5.005-5.187,0-8.554-2.366-9.555-8.281H49.413A28.661,28.661,0,0,0,49.868-23.387ZM27.027-35.581c4.823,0,7.644,3.094,8.463,8.918H18.382C19.2-32.851,22.113-35.581,27.027-35.581Z" transform="matrix(1, 0.013, -0.013, 1, 568.316, 101.583)" fill="#fff" stroke="#bda3ef" stroke-width="3"/>
      <path id="Path_178" data-name="Path 178" transform="matrix(0.995, 0.095, -0.095, 0.995, 619.491, 100.632)" fill="#fff" stroke="#bda3ef" stroke-width="3"/>
      <path id="Path_179" data-name="Path 179" d="M22.695-47.615c0-4.628,2.759-6.408,7.387-6.408A7.825,7.825,0,0,1,35.155-52.6l1.513-9.434c-2.047-1.6-5.607-2.581-10.235-2.581-10.057,0-17.978,4.806-17.978,16.02V-44.5H1.335v10.769h7.12V0h15.13V-33.731H36.223V-44.5H22.695Z" transform="translate(647.421 102.694) rotate(11.843)" fill="#fff" stroke="#bda3ef" stroke-width="3"/>
      <path id="Path_180" data-name="Path 180" d="M48.416-8.633q-3.2,0-3.2-3.471V-28.3c0-11.481-7.565-17.088-21.271-17.088-12.1,0-19.046,5.251-20.559,13.706l12.282,3.56c.89-5.162,4.005-6.853,8.277-6.853,4.005,0,6.319,2.581,6.319,6.586v1.6L20.2-24.831C7.565-22.339,2.848-17.622,2.848-10.235,2.848-3.026,7.832.89,16.643.89c8.188,0,13.35-2.581,15.842-6.853C33.82-1.157,38,.89,43.966.89A12.4,12.4,0,0,0,50.018-.534l1.157-8.455A8.651,8.651,0,0,1,48.416-8.633ZM22.161-8.9C19.4-8.9,17.8-10.235,17.8-12.727s1.513-3.738,5.251-4.628l7.209-1.691v3.827C30.26-11.125,25.9-8.9,22.161-8.9Z" transform="translate(682.292 111.15) rotate(20.021)" fill="#fff" stroke="#bda3ef" stroke-width="3"/>
      <path id="Path_181" data-name="Path 181" d="M33.968-44,24.728-9.5,15.664-44H-.088L15.752,0H33.616l15.84-44Z" transform="matrix(0.931, 0.365, -0.365, 0.931, 730.451, 128.489)" fill="#fff" stroke="#bda3ef" stroke-width="3"/>
      <path id="Path_182" data-name="Path 182" d="M26.789-45.39c-14.863,0-23.5,8.544-23.5,23.14S11.926.89,26.789.89s23.5-8.544,23.5-23.14S41.652-45.39,26.789-45.39Zm0,10.769c5.607,0,8.366,3.649,8.366,12.371S32.4-9.879,26.789-9.879s-8.366-3.649-8.366-12.371S21.182-34.621,26.789-34.621Z" transform="translate(785.751 151.239) rotate(12.332)" fill="#fff" stroke="#bda3ef" stroke-width="3"/>
      <path id="Path_183" data-name="Path 183" d="M34.621-44.5v23.585c0,7.12-3.471,10.235-8.188,10.235-3.916,0-6.141-1.869-6.141-7.921V-44.5H5.162v29.726C5.162-3.56,11.3.89,20.381.89c7.209,0,12.638-2.937,15.4-9.167L36.223,0H49.751V-44.5Z" transform="translate(849.467 164.071) rotate(2.799)" fill="#fff" stroke="#bda3ef" stroke-width="3"/>
      <path id="Path_184" data-name="Path 184" d="M32.93-45.39c-6.942,0-11.3,3.827-13.528,10.413L18.779-44.5H5.429V0h15.13V-22.428c0-7.031,4.628-10.5,9.968-10.5a11.533,11.533,0,0,1,5.607,1.335l1.6-12.816A10.239,10.239,0,0,0,32.93-45.39Z" transform="matrix(0.995, -0.1, 0.1, 0.995, 915.104, 166.616)" fill="#fff" stroke="#bda3ef" stroke-width="3"/>
      <path id="Path_185" data-name="Path 185" d="M12.7-48.546c6,0,8.613-2.175,8.613-7.047,0-4.959-2.61-7.134-8.613-7.134s-8.613,2.175-8.613,7.134C4.089-50.721,6.7-48.546,12.7-48.546ZM20.1-43.5H5.307V0H20.1Z" transform="matrix(0.968, -0.25, 0.25, 0.968, 962.554, 158.749)" fill="#fff" stroke="#bda3ef" stroke-width="3"/>
      <path id="Path_186" data-name="Path 186" d="M35.816-11.7A10.249,10.249,0,0,1,29.48-9.768c-3.7,0-5.808-1.672-5.808-5.9V-33.352h13.2V-44h-13.2V-57.992L8.712-53.856V-44H1.144v10.648H8.712V-13.2C8.8-2.992,14.96.88,24.9.88c4.576,0,9.5-1.32,12.408-3.344Z" transform="translate(996.464 150.845) rotate(-22.649)" fill="#fff" stroke="#bda3ef" stroke-width="3"/>
      <path id="Path_187" data-name="Path 187" d="M49.868-23.387c0-14.378-7.917-23.023-22.75-23.023-15.2,0-23.751,8.645-23.751,23.66S12.012.91,27.937.91c10.556,0,18.291-4,20.93-11.921l-12.558-4c-1,3.185-3.822,5.005-8.372,5.005-5.187,0-8.554-2.366-9.555-8.281H49.413A28.661,28.661,0,0,0,49.868-23.387ZM27.027-35.581c4.823,0,7.644,3.094,8.463,8.918H18.382C19.2-32.851,22.113-35.581,27.027-35.581Z" transform="matrix(0.878, -0.479, 0.479, 0.878, 1039.958, 135.386)" fill="#fff" stroke="#bda3ef" stroke-width="3"/>
      <path id="Path_188" data-name="Path 188" d="M23.316.87C37.323.87,44.022-5.394,44.022-13.4c0-7.482-5.133-11.571-18.009-13.833-6.09-1.131-8-2.262-8-4s2.262-3.306,6.612-3.306c5.22,0,9.048,1.74,11.832,5.829l7.656-7.482c-3.741-5.133-9.483-8.178-19.923-8.178-14.181,0-20.967,7.308-20.967,14.442S8-18.531,21.228-15.921c5.829,1.218,7.917,2.262,7.917,3.915,0,1.827-2.436,3.045-6.525,3.045-5.568,0-10.266-1.827-12.876-6.177L2.088-6.786C6.525-1.392,13.746.87,23.316.87Z" transform="translate(1082.858 106.372) rotate(-24.491)" fill="#fff" stroke="#bda3ef" stroke-width="3"/>
    </g>
    <g id="Group_101" data-name="Group 101" transform="translate(277.069 4645)">
      <path id="Path_141" data-name="Path 141" d="M58.23-59.4H42.48L34.11-43.11l-4.5,9.9-4.41-9.9L16.83-59.4H.81L21.78-21.69V0H37.26V-21.69Z" transform="matrix(0.965, 0.262, -0.262, 0.965, 15.088, 83.069)" fill="#fff" stroke="#f00540" stroke-width="3"/>
      <path id="Path_142" data-name="Path 142" d="M26.789-45.39c-14.863,0-23.5,8.544-23.5,23.14S11.926.89,26.789.89s23.5-8.544,23.5-23.14S41.652-45.39,26.789-45.39Zm0,10.769c5.607,0,8.366,3.649,8.366,12.371S32.4-9.879,26.789-9.879s-8.366-3.649-8.366-12.371S21.182-34.621,26.789-34.621Z" transform="matrix(0.892, 0.452, -0.452, 0.892, 58.272, 93.007)" fill="#fff" stroke="#f00540" stroke-width="3"/>
      <path id="Path_143" data-name="Path 143" d="M34.621-44.5v23.585c0,7.12-3.471,10.235-8.188,10.235-3.916,0-6.141-1.869-6.141-7.921V-44.5H5.162v29.726C5.162-3.56,11.3.89,20.381.89c7.209,0,12.638-2.937,15.4-9.167L36.223,0H49.751V-44.5Z" transform="matrix(0.889, 0.457, -0.457, 0.889, 107.655, 119.314)" fill="#fff" stroke="#f00540" stroke-width="3"/>
      <path id="Path_144" data-name="Path 144" d="M32.93-45.39c-6.942,0-11.3,3.827-13.528,10.413L18.779-44.5H5.429V0h15.13V-22.428c0-7.031,4.628-10.5,9.968-10.5a11.533,11.533,0,0,1,5.607,1.335l1.6-12.816A10.239,10.239,0,0,0,32.93-45.39Z" transform="matrix(0.952, 0.305, -0.305, 0.952, 167.312, 148.844)" fill="#fff" stroke="#f00540" stroke-width="3"/>
      <path id="Path_145" data-name="Path 145" transform="translate(202.921 160.12) rotate(9.407)" fill="#fff" stroke="#f00540" stroke-width="3"/>
      <path id="Path_146" data-name="Path 146" d="M47.872-8.536q-3.168,0-3.168-3.432V-27.984c0-11.352-7.48-16.9-21.032-16.9C11.7-44.88,4.84-39.688,3.344-31.328l12.144,3.52c.88-5.1,3.96-6.776,8.184-6.776,3.96,0,6.248,2.552,6.248,6.512v1.584l-9.944,1.936C7.48-22.088,2.816-17.424,2.816-10.12c0,7.128,4.928,11,13.64,11,8.1,0,13.2-2.552,15.664-6.776C33.44-1.144,37.576.88,43.472.88A12.265,12.265,0,0,0,49.456-.528L50.6-8.888A8.554,8.554,0,0,1,47.872-8.536ZM21.912-8.8c-2.728,0-4.312-1.32-4.312-3.784s1.5-3.7,5.192-4.576l7.128-1.672v3.784C29.92-11,25.608-8.8,21.912-8.8Z" transform="translate(249.622 165.346) rotate(-0.473)" fill="#fff" stroke="#f00540" stroke-width="3"/>
      <path id="Path_147" data-name="Path 147" d="M19.923-61.944H5.133v49.068C5.133-3.219,9.048.87,18.357.87A19.04,19.04,0,0,0,27.405-1.3l.957-9.135a12.532,12.532,0,0,1-4.437.783c-3.045,0-4-1.566-4-5.394Z" transform="translate(304.94 162.817) rotate(-6.64)" fill="#fff" stroke="#f00540" stroke-width="3"/>
      <path id="Path_148" data-name="Path 148" d="M19.923-61.944H5.133v49.068C5.133-3.219,9.048.87,18.357.87A19.04,19.04,0,0,0,27.405-1.3l.957-9.135a12.532,12.532,0,0,1-4.437.783c-3.045,0-4-1.566-4-5.394Z" transform="matrix(0.977, -0.213, 0.213, 0.977, 340.221, 158.496)" fill="#fff" stroke="#f00540" stroke-width="3"/>
      <path id="Path_149" data-name="Path 149" d="M39.336-29.656H7.128v12.232H39.336Z" transform="translate(372.891 152.721) rotate(-19.233)" fill="#fff" stroke="#f00540" stroke-width="3"/>
      <path id="Path_150" data-name="Path 150" d="M36.223-11.837a10.365,10.365,0,0,1-6.408,1.958c-3.738,0-5.874-1.691-5.874-5.963V-33.731h13.35V-44.5H23.941V-58.651L8.811-54.468V-44.5H1.157v10.769H8.811V-13.35C8.9-3.026,15.13.89,25.187.89,29.815.89,34.8-.445,37.736-2.492Z" transform="translate(426.164 133.93) rotate(-21.946)" fill="#fff" stroke="#f00540" stroke-width="3"/>
      <path id="Path_151" data-name="Path 151" d="M12.7-48.546c6,0,8.613-2.175,8.613-7.047,0-4.959-2.61-7.134-8.613-7.134s-8.613,2.175-8.613,7.134C4.089-50.721,6.7-48.546,12.7-48.546ZM20.1-43.5H5.307V0H20.1Z" transform="translate(465.846 116.231) rotate(-16.939)" fill="#fff" stroke="#f00540" stroke-width="3"/>
      <path id="Path_152" data-name="Path 152" d="M63.368-45.39c-6.5,0-12.015,3.115-14.863,8.989C46.28-42.364,40.94-45.39,34.354-45.39c-6.764,0-12.1,3.2-14.952,9.434L18.957-44.5H5.429V0h15.13V-23.5c0-7.3,3.649-10.324,7.832-10.324,3.56,0,6.052,2.047,6.052,7.654V0h15.13V-23.763c0-6.675,3.293-10.057,7.832-10.057,3.649,0,6.052,2.047,6.052,7.654V0H78.409l.178-29.637C78.676-40.05,72.09-45.39,63.368-45.39Z" transform="translate(486.586 109.081) rotate(-7.521)" fill="#fff" stroke="#f00540" stroke-width="3"/>
      <path id="Path_153" data-name="Path 153" d="M49.868-23.387c0-14.378-7.917-23.023-22.75-23.023-15.2,0-23.751,8.645-23.751,23.66S12.012.91,27.937.91c10.556,0,18.291-4,20.93-11.921l-12.558-4c-1,3.185-3.822,5.005-8.372,5.005-5.187,0-8.554-2.366-9.555-8.281H49.413A28.661,28.661,0,0,0,49.868-23.387ZM27.027-35.581c4.823,0,7.644,3.094,8.463,8.918H18.382C19.2-32.851,22.113-35.581,27.027-35.581Z" transform="matrix(1, 0.013, -0.013, 1, 568.316, 101.583)" fill="#fff" stroke="#f00540" stroke-width="3"/>
      <path id="Path_154" data-name="Path 154" transform="matrix(0.995, 0.095, -0.095, 0.995, 619.491, 100.631)" fill="#fff" stroke="#f00540" stroke-width="3"/>
      <path id="Path_155" data-name="Path 155" d="M22.695-47.615c0-4.628,2.759-6.408,7.387-6.408A7.825,7.825,0,0,1,35.155-52.6l1.513-9.434c-2.047-1.6-5.607-2.581-10.235-2.581-10.057,0-17.978,4.806-17.978,16.02V-44.5H1.335v10.769h7.12V0h15.13V-33.731H36.223V-44.5H22.695Z" transform="translate(647.42 102.694) rotate(11.843)" fill="#fff" stroke="#f00540" stroke-width="3"/>
      <path id="Path_156" data-name="Path 156" d="M48.416-8.633q-3.2,0-3.2-3.471V-28.3c0-11.481-7.565-17.088-21.271-17.088-12.1,0-19.046,5.251-20.559,13.706l12.282,3.56c.89-5.162,4.005-6.853,8.277-6.853,4.005,0,6.319,2.581,6.319,6.586v1.6L20.2-24.831C7.565-22.339,2.848-17.622,2.848-10.235,2.848-3.026,7.832.89,16.643.89c8.188,0,13.35-2.581,15.842-6.853C33.82-1.157,38,.89,43.966.89A12.4,12.4,0,0,0,50.018-.534l1.157-8.455A8.651,8.651,0,0,1,48.416-8.633ZM22.161-8.9C19.4-8.9,17.8-10.235,17.8-12.727s1.513-3.738,5.251-4.628l7.209-1.691v3.827C30.26-11.125,25.9-8.9,22.161-8.9Z" transform="translate(682.292 111.15) rotate(20.021)" fill="#fff" stroke="#f00540" stroke-width="3"/>
      <path id="Path_157" data-name="Path 157" d="M33.968-44,24.728-9.5,15.664-44H-.088L15.752,0H33.616l15.84-44Z" transform="matrix(0.931, 0.365, -0.365, 0.931, 730.451, 128.489)" fill="#fff" stroke="#f00540" stroke-width="3"/>
      <path id="Path_158" data-name="Path 158" d="M26.789-45.39c-14.863,0-23.5,8.544-23.5,23.14S11.926.89,26.789.89s23.5-8.544,23.5-23.14S41.652-45.39,26.789-45.39Zm0,10.769c5.607,0,8.366,3.649,8.366,12.371S32.4-9.879,26.789-9.879s-8.366-3.649-8.366-12.371S21.182-34.621,26.789-34.621Z" transform="translate(785.751 151.239) rotate(12.332)" fill="#fff" stroke="#f00540" stroke-width="3"/>
      <path id="Path_159" data-name="Path 159" d="M34.621-44.5v23.585c0,7.12-3.471,10.235-8.188,10.235-3.916,0-6.141-1.869-6.141-7.921V-44.5H5.162v29.726C5.162-3.56,11.3.89,20.381.89c7.209,0,12.638-2.937,15.4-9.167L36.223,0H49.751V-44.5Z" transform="translate(849.467 164.071) rotate(2.799)" fill="#fff" stroke="#f00540" stroke-width="3"/>
      <path id="Path_160" data-name="Path 160" d="M32.93-45.39c-6.942,0-11.3,3.827-13.528,10.413L18.779-44.5H5.429V0h15.13V-22.428c0-7.031,4.628-10.5,9.968-10.5a11.533,11.533,0,0,1,5.607,1.335l1.6-12.816A10.239,10.239,0,0,0,32.93-45.39Z" transform="matrix(0.995, -0.1, 0.1, 0.995, 915.105, 166.616)" fill="#fff" stroke="#f00540" stroke-width="3"/>
      <path id="Path_161" data-name="Path 161" d="M12.7-48.546c6,0,8.613-2.175,8.613-7.047,0-4.959-2.61-7.134-8.613-7.134s-8.613,2.175-8.613,7.134C4.089-50.721,6.7-48.546,12.7-48.546ZM20.1-43.5H5.307V0H20.1Z" transform="matrix(0.968, -0.25, 0.25, 0.968, 962.554, 158.749)" fill="#fff" stroke="#f00540" stroke-width="3"/>
      <path id="Path_162" data-name="Path 162" d="M35.816-11.7A10.249,10.249,0,0,1,29.48-9.768c-3.7,0-5.808-1.672-5.808-5.9V-33.352h13.2V-44h-13.2V-57.992L8.712-53.856V-44H1.144v10.648H8.712V-13.2C8.8-2.992,14.96.88,24.9.88c4.576,0,9.5-1.32,12.408-3.344Z" transform="translate(996.463 150.845) rotate(-22.649)" fill="#fff" stroke="#f00540" stroke-width="3"/>
      <path id="Path_163" data-name="Path 163" d="M49.868-23.387c0-14.378-7.917-23.023-22.75-23.023-15.2,0-23.751,8.645-23.751,23.66S12.012.91,27.937.91c10.556,0,18.291-4,20.93-11.921l-12.558-4c-1,3.185-3.822,5.005-8.372,5.005-5.187,0-8.554-2.366-9.555-8.281H49.413A28.661,28.661,0,0,0,49.868-23.387ZM27.027-35.581c4.823,0,7.644,3.094,8.463,8.918H18.382C19.2-32.851,22.113-35.581,27.027-35.581Z" transform="matrix(0.878, -0.479, 0.479, 0.878, 1039.958, 135.386)" fill="#fff" stroke="#f00540" stroke-width="3"/>
      <path id="Path_164" data-name="Path 164" d="M23.316.87C37.323.87,44.022-5.394,44.022-13.4c0-7.482-5.133-11.571-18.009-13.833-6.09-1.131-8-2.262-8-4s2.262-3.306,6.612-3.306c5.22,0,9.048,1.74,11.832,5.829l7.656-7.482c-3.741-5.133-9.483-8.178-19.923-8.178-14.181,0-20.967,7.308-20.967,14.442S8-18.531,21.228-15.921c5.829,1.218,7.917,2.262,7.917,3.915,0,1.827-2.436,3.045-6.525,3.045-5.568,0-10.266-1.827-12.876-6.177L2.088-6.786C6.525-1.392,13.746.87,23.316.87Z" transform="translate(1082.858 106.373) rotate(-24.491)" fill="#fff" stroke="#f00540" stroke-width="3"/>
    </g>
  </g>
</svg>
