<svg id="logo" xmlns="http://www.w3.org/2000/svg" xmlns:xlink="http://www.w3.org/1999/xlink" width="150.096" height="73.38" viewBox="0 0 150.096 73.38">
  <defs>
    <clipPath id="clip-path">
      <rect id="Rectangle_1" data-name="Rectangle 1" width="150.096" height="73.38" fill="#f00540"/>
    </clipPath>
  </defs>
  <g id="Group_1" data-name="Group 1" clip-path="url(#clip-path)">
    <path id="Path_10" data-name="Path 10" d="M80.09,22.577c2.878,3.859,6.5,3.139,6.5,3.139,1.581-.509,1.868-1.872,1.682-4.931s-3.628-3.436-4.912-3.346-6.145,1.278-3.268,5.138m57.834,45.662c-3.711-1.392-8.057-5.716-10.4-12.929s4.775-11.137,11.112-17.467,13.039-14.02,11.129-22.745S136.229,18.39,131.036,25.79c-5.364,7.646-11.353,17.26-12.239,19.376-1.532,3.663-3.036,3.49-2.914.775s6.735-11.16,8.146-12.985.046-2.715.046-2.715a17.07,17.07,0,0,0-2.061-2.164c-1.524-1.415-3.843.269-3.843.269s-2.962-1.927-9.478,1.917-12.325,10.318-14.2,11.243-1.689-2.7,2.474-7.945,13.494-20.283,15.984-26.871-5.939-5.136-11.4-.927S92.135,19.517,89.95,26.253,81.822,44.4,80.928,45.392s-1.025-.7-.52-2.784a34.548,34.548,0,0,1,4.339-9.663c1.967-2.7-.61-3.951-2.88-4.68s-5.07,1.679-5.07,1.679S69.363,42.808,69.03,43.3,68,45.273,67.463,44.79s-.058-1.772-.058-1.772S77.964,16.491,80.279,11.206s2.694-6.986-1.486-6.543-5.5,3.229-5.5,3.229l-9.6,21.258C55.8,22.225,45.887,43.807,45.3,45.321s-.965-2.043.276-3.98a36.112,36.112,0,0,0,2.2-4.058C51,29.4,43.146,27.985,38.723,30.3s-16.946,15.044-18.5,17.926,2.3,3.593,2.3,3.593c-.289,1.058-1.007,4.158,1.054,6.623s4.117,3.95,7.039,2.334,6.707-7.013,6.707-7.013c3.45,5.089,10.381-2.077,10.381-2.077s-.561,3.776,3.752,5.009,9.509-5.913,9.509-5.913c3.153,5.544,9.876-.111,9.876-.111,4.463,8.017,14.292-3.025,14.292-3.025,4.588,5.678,10.639.709,10.639.709s-.868,3.177,4.266,3.872a8.394,8.394,0,0,0,7.807-3.1c2.319-1.684.263,3.24,2.688,4.343s7.153-.908,7.153-.908.9,12.883,8.723,17.923,15.632,2.236,15.919,1.026-.7-1.876-4.409-3.266m2.64-46.7c3.432-3.432,4.64-3.144,3.611-.87s-6.955,11.916-13.834,16.894c0,0,6.793-12.593,10.223-16.024m-39.318-8.143c1.777-2.454,3.428-2.237,2.818-.66s-9.942,16.44-9.942,16.44,5.345-13.327,7.124-15.78M38.506,37.764c-.423,2.644-4.161,12.186-6.028,13.791s-2.784.484-2.784.484-2.063-2.465.759-6.266,8.475-10.652,8.053-8.008m23.069-3.388c-.218,2.355-2.959,10.983-4.511,12.507s-2.426.588-2.426.588-1.963-2.054.3-5.568,6.853-9.882,6.633-7.527m52.22.279a26.158,26.158,0,0,1-3.266,4.56s-5.29,5.565-6.574,5.427-1.76-2.318.708-4.08,10.09-7.88,9.132-5.908M41.784.857c-5.932-4.608-16.469,10.44-20.29,19.38s-9.258,29.849-9.258,29.849C12.234,39.85,10,27.6,7.12,22.66S2.237,20.849.692,24.26.673,32.686.673,32.686C5.122,46.094,4.971,59.48,5.23,62.342s4.642,2.135,4.642,2.135L12.3,64.2c2.915-.561,3.6-5,3.6-5C26.2,23.049,38.467,9.3,41.316,6.045s.469-5.188.469-5.188" transform="translate(0 0)" fill="#f00540" fill-rule="evenodd"/>
  </g>
</svg>
