<svg id="made_by_ting" xmlns="http://www.w3.org/2000/svg" width="103.155" height="37.51" viewBox="0 0 103.155 37.51">
  <g id="Group_191" data-name="Group 191">
    <path id="Path_45" data-name="Path 45" d="M100.678,43.7a.123.123,0,0,0,.083.049.133.133,0,0,1,.083.047.263.263,0,0,1,.095.118l.024.024c0,.016.008.025.023.025.08.031.156.063.226.093a2.352,2.352,0,0,1,.225.12l.048.023a5.983,5.983,0,0,1,.629-.011,1.438,1.438,0,0,0,.653-.155.955.955,0,0,0,.475-.38,3.675,3.675,0,0,0,.309-.618,1.5,1.5,0,0,0,.13-.571c.008-.2.012-.419.012-.641V41.3a4.586,4.586,0,0,0-.024-.476c0-.031.009-.13.024-.3a1.093,1.093,0,0,1,.071-.345q.165-.428.475-.463c.206-.022.348-.035.428-.035a.751.751,0,0,1,.308.083.376.376,0,0,1,.143.155c.031,0,.048.031.048.095a1.281,1.281,0,0,0,.106.3.832.832,0,0,1,.083.3,3.742,3.742,0,0,1,0,.583c-.017.181-.023.359-.023.534v.143a1.227,1.227,0,0,0-.048.356,1.35,1.35,0,0,1-.049.357.656.656,0,0,1-.011.093.7.7,0,0,0-.012.1,2.8,2.8,0,0,1-.178.962,3.161,3.161,0,0,1-.368.748,3.2,3.2,0,0,1-.522.571,3.3,3.3,0,0,1-.642.379,1.655,1.655,0,0,1-.32.143c-.1.031-.218.063-.345.093a3.878,3.878,0,0,1-.95.12,5.071,5.071,0,0,1-.878-.072.479.479,0,0,1-.215-.048,2.961,2.961,0,0,0-.32-.118c-.1-.032-.225-.071-.368-.119h-.023a.645.645,0,0,0-.071-.119c-.033,0-.041.016-.025.048s.008.039-.024.024a.652.652,0,0,1-.165-.118.587.587,0,0,0-.191-.121.07.07,0,0,0-.047-.022.619.619,0,0,1-.131-.118c-.039-.048-.091-.1-.154-.167a2.471,2.471,0,0,1-.522-.926,4.833,4.833,0,0,1-.238-1.139q-.071-.9-.06-1.947t.012-2.35c0-.315,0-.748.012-1.3s0-1.064-.037-1.554a.309.309,0,0,0-.225-.261,2.762,2.762,0,0,1-.3-.1h-.1a1.973,1.973,0,0,0-.321.023l-.248.048h-.1a.941.941,0,0,1-.618-.285.9.9,0,0,1-.236-.547,1.054,1.054,0,0,1,.189-.559.736.736,0,0,1,.618-.319h1c.269-.015.388-.2.356-.545V31.5c0-.269,0-.479-.012-.629a1.652,1.652,0,0,1,.037-.44.707.707,0,0,1,.593-.569.551.551,0,0,1,.249-.048.737.737,0,0,1,.225.023.267.267,0,0,1,.143.095.272.272,0,0,0,.143.095l.047.048a.612.612,0,0,0,.143.238.6.6,0,0,1,.143.284.188.188,0,0,0,.025.1.207.207,0,0,1,.024.1c.031.172.023.28-.024.319s-.04.117.024.225a.2.2,0,0,0,.011.06.22.22,0,0,1,.012.06,1.753,1.753,0,0,1,.012.344c-.008.1-.012.217-.012.344v.321c0,.134,0,.271.012.414s.013.266.013.369v.176q.069.214.428.214h2.658a.736.736,0,0,1,.594.19.913.913,0,0,1,.237.618.749.749,0,0,1-.237.676,1.077,1.077,0,0,1-.594.226h-2.778c-.205,0-.308.159-.308.475-.033.506-.044.973-.037,1.4s0,.879-.034,1.354a.4.4,0,0,0,.013.118.424.424,0,0,0,.034.1v2.755a4.7,4.7,0,0,0,.059,1.046,3.617,3.617,0,0,0,.274.83v.046a.065.065,0,0,0,.024.048.192.192,0,0,0,.022.119c0,.048.017.071.049.071m-4.037-9.26c0-.049-.009-.072-.024-.072,0,.047.008.072.024.072m.214-.381v-.071a.039.039,0,0,1-.024.035c-.016.009-.008.021.024.036m0,.808c0,.064.008.071.023.023s.007-.055-.023-.023M97,34.7c.062.063.087.067.071.011s-.039-.059-.071-.011m.118-.593c.031.016.048,0,.048-.037s-.007-.051-.024-.035c-.032.032-.04.055-.024.072m.048-.143a.059.059,0,0,0,.06-.035.456.456,0,0,1,.035-.083.072.072,0,0,1-.025-.05c0-.015-.015-.023-.047-.023q.047.071,0,.106a.063.063,0,0,0-.024.084m.238.854v-.07a.04.04,0,0,1-.024.035c-.017.008-.008.02.024.035m.094.048c0-.032.016-.039.048-.023a.209.209,0,0,1,.036-.262.178.178,0,0,0,.035-.236c.063-.033.08-.072.048-.119a.369.369,0,0,0-.143.3c-.015.149-.023.265-.023.344m.214-.736c-.048.015-.06.032-.037.048s.037,0,.037-.048m0,.688c-.033.033-.033.048,0,.048s.032-.014,0-.048m0-.926.1.048a.051.051,0,0,1,.011-.072.079.079,0,0,0,.035-.071.352.352,0,0,1-.1-.071.246.246,0,0,1-.011.1l-.035.071m.118.475-.022-.022c-.033.016-.04.032-.024.046s.031.008.046-.024m.1-.475c-.031,0-.047-.012-.047-.035s-.008-.019-.024.011c.016,0,.028.012.036.038s.019.02.035-.013m1.116-.261c-.015.064-.007.078.024.048s.024-.048-.024-.048m.143,1.378c-.032.015-.049.015-.049,0s-.015-.026-.047-.026c-.016.048-.009.068.023.06a.176.176,0,0,0,.072-.035m-.024-4.892c0-.048-.008-.071-.025-.071,0,.046.008.071.025.071m.1.1c.047,0,.071-.032.071-.1h-.071Zm0,7.384c.078,0,.118-.008.118-.023-.032-.016-.039-.036-.024-.06a.151.151,0,0,0,.024-.083c-.017,0-.024,0-.024-.012s-.008-.011-.023-.011c.03.046.03.079,0,.094a.156.156,0,0,0-.071.095m.118,7.053a.065.065,0,0,0-.024-.06.16.16,0,0,1-.047-.035c0,.064.024.1.071.1m.071-10.876c0-.031,0-.051.013-.06a.1.1,0,0,0,.011-.059h-.1c0,.08.024.119.071.119m-.071,3.49h.047c0-.048-.015-.071-.047-.071Zm.143-7.029a.085.085,0,0,0-.1-.095.085.085,0,0,0,.1.095m-.047,6.721h.047c-.031-.031-.047-.031-.047,0m.047-.19c.016-.047.032-.052.047-.012s.039.044.072.012a.108.108,0,0,0-.035-.095c-.024-.015-.052-.032-.084-.048a.129.129,0,0,1-.023.06c-.016.023-.008.052.023.083m.024-2.421c0,.079.016.13.047.153a1.186,1.186,0,0,1,.095.083.182.182,0,0,1,.06-.071.079.079,0,0,0,.035-.07c-.047.016-.087,0-.119-.06s-.071-.067-.118-.035m.142-4.084h-.095c0,.062.015.082.048.059a.065.065,0,0,1,.1.011c.015.032.007.044-.025.035s-.039,0-.023.035.055.032.071,0a.155.155,0,0,1,.071-.071c-.047,0-.055-.032-.023-.1h-.071c0-.016.015-.038.047-.07a.055.055,0,0,1-.06-.035c-.009-.025-.027-.028-.06-.012-.017.016-.011.035.012.06a.067.067,0,0,1,.012.083m-.072,1.922c.032.033.06.059.083.084l.084.083a.255.255,0,0,1-.047-.2.244.244,0,0,0-.025-.177.183.183,0,0,1-.059.1c-.024.016-.037.055-.037.117m.025,5.533a.542.542,0,0,1-.012.107.07.07,0,0,0,.036.084.2.2,0,0,0,.084-.107.11.11,0,0,0-.012-.13.067.067,0,0,1-.1.046m.071-2.8a.124.124,0,0,0,.025-.13.167.167,0,0,0-.072-.108.364.364,0,0,1,.012.154.067.067,0,0,0,.035.083m.025,1.284a.162.162,0,0,1,.012-.072c.007-.015-.005-.025-.037-.025,0,.064.007.1.025.1m.023-2.375c.048-.016.071-.012.071.011s.016.035.047.035a.077.077,0,0,0-.047-.071.047.047,0,0,0-.071.025m0,.545c.016,0,.024.024.024.072a.31.31,0,0,0,.083-.06c.024-.024.021-.052-.011-.083.016.049,0,.064-.036.049s-.06-.01-.06.022m.1-3.371c0-.033-.008-.052-.024-.06a.117.117,0,0,1-.047-.059.2.2,0,0,0,.071.119m.023,2.349a.191.191,0,0,1-.023-.083.081.081,0,0,0-.024-.058.283.283,0,0,1-.012.082c-.008.025.012.044.059.059m.024,11.921a.135.135,0,0,0-.047-.1c-.032.032-.039.06-.024.083a.05.05,0,0,0,.071.012m-.047-13.416c0-.031,0-.044.011-.036s.021,0,.035-.012c-.031,0-.047,0-.047-.011s-.008-.012-.024-.012a.09.09,0,0,0,.024.071m.023-1.425.024.025.023-.025c.033-.063.017-.079-.047-.048l-.023.024Zm0,5.153c.032,0,.044-.012.036-.036a.055.055,0,0,1,.011-.059c-.031,0-.047.032-.047.095m.119-1.995a.169.169,0,0,1-.024.142c.032.032.055.032.071,0s.048-.038.1-.023a.125.125,0,0,1,0-.107c.016-.039.008-.068-.024-.082-.015.031-.032.046-.047.046a.174.174,0,0,0-.072.024m-.024,11.421c.015.032.024.027.024-.011s-.009-.037-.024.011m.024-9.735c.015.032.028.032.037,0s-.005-.032-.037,0m.025-.072a.1.1,0,0,0,.071-.023.3.3,0,0,1,.072-.047c-.017-.08-.017-.126,0-.143s.015-.054,0-.118a1.068,1.068,0,0,1-.107.131.221.221,0,0,0-.035.2m.047-2.041c-.033,0-.047.008-.047.023.031,0,.047-.007.047-.023m-.047.831h.071c0-.063-.023-.086-.071-.071Zm0,.238c.031.032.042.032.035,0s-.021-.03-.035,0m.022-.761a.147.147,0,0,1,.1.024c-.016-.031-.011-.049.011-.059s.02-.019-.011-.035c-.016.033-.032.035-.047.011s-.032-.035-.048-.035Zm.072-.45a.038.038,0,0,0-.023-.036c-.016-.009-.023,0-.023.036.015-.016.023-.016.023,0s.008.015.023,0m.024.832q0-.025.025,0a.043.043,0,0,0-.049-.05c0,.033.008.05.024.05m0,11.539c.032,0,.051-.008.06-.024a.125.125,0,0,1,.059-.048c-.03,0-.047,0-.047-.011s-.018-.013-.047-.013a.136.136,0,0,1-.025.1m.025-10.567h.071a.073.073,0,0,1,0-.082c.015-.024,0-.045-.049-.06a.194.194,0,0,1-.011.072.17.17,0,0,0-.011.07m.165-1.069c.065,0,.1-.007.1-.023-.063,0-.1.009-.1.023m.214,1.448c.017.032.027.032.035,0s0-.031-.035,0m.356,10.33a.137.137,0,0,1,.084.024.078.078,0,0,0,.083,0,.19.19,0,0,0,.036-.154.574.574,0,0,0-.036-.156c0,.081-.028.129-.083.143s-.084.063-.084.143m.665.024a.107.107,0,0,0,.012.107c.025.039.052.043.083.011-.032-.062-.021-.083.035-.059a.1.1,0,0,0,.13-.035c-.031,0-.043-.008-.035-.024s0-.024-.011-.024a.547.547,0,0,0-.107.011.546.546,0,0,1-.107.013m.214-11.042c-.016.08.015.118.094.118-.016-.031.017-.047.095-.047a.215.215,0,0,1-.059-.083.114.114,0,0,0-.06-.058c.017.045-.008.07-.071.07m.046-.214c-.015.049,0,.071.037.071s.05-.022.035-.071c-.031.016-.048.016-.048,0s-.008-.016-.024,0m.048-.237c.08.016.119.056.119.12a.111.111,0,0,0,.1.118c.062-.063.062-.114,0-.154a.77.77,0,0,1-.143-.107.162.162,0,0,1,.012-.06c.008-.025,0-.027-.037-.011.016.032.012.046-.011.046s-.036.016-.036.048m.475,1.139c.048-.048.04-.071-.024-.071,0,.047.008.071.024.071m0,9.689c.032-.032.023-.064-.024-.094,0,.062.008.094.024.094m.023.665.1.048a.187.187,0,0,1,.036-.084c.023-.04.012-.068-.036-.083.015.048.008.071-.024.071a.077.077,0,0,0-.072.048m.191-.428a.14.14,0,0,0-.024-.1c0,.048-.023.064-.071.048s-.071-.015-.071,0a.227.227,0,0,0,.166.048m.094-.237c.049,0,.072-.016.072-.048h-.047c0,.016,0,.024-.013.024s-.012.008-.012.024m.119-10.425c.032,0,.047-.007.047-.022s.017-.016.048,0a.094.094,0,0,0-.048-.095c0,.032-.008.05-.024.059s-.023.029-.023.059m.285.5a1.029,1.029,0,0,0,.048-.119.107.107,0,0,0-.024-.119c-.016.031-.036.071-.058.119a.084.084,0,0,0,.034.119m.262,9.449c.015,0,.028-.016.035-.046s0-.048-.035-.048c.015.032.011.054-.012.071s-.021.023.012.023m.214-.427a.1.1,0,0,1,0,.095.045.045,0,0,0,.023.071c.015-.031.027-.035.036-.012s.027.029.059.012a.179.179,0,0,1,0-.178c.032-.055-.008-.051-.118.013m.094.665a.278.278,0,0,0,.119-.036c.048-.024.056-.051.023-.082q-.047.069-.095.034a.237.237,0,0,1-.07-.083q-.025.047,0,.071a.141.141,0,0,1,.023.1m.024-1.355a.257.257,0,0,0,.13.131.313.313,0,0,1,.131.107c-.063.127-.039.206.072.237a.572.572,0,0,1,.308-.011.661.661,0,0,0,.332-.011.2.2,0,0,1-.059-.108.422.422,0,0,0-.06-.131,1.923,1.923,0,0,1-.391.012c-.151-.008-.21-.074-.178-.2-.08.016-.12,0-.12-.06s-.033-.083-.095-.083c0,.033-.011.052-.036.06a.056.056,0,0,0-.035.059m.142-2.137c.015,0,.04.016.071.048a.194.194,0,0,0,.024-.119c-.064.032-.1.055-.1.071m.166,2.043c.016-.033,0-.052-.036-.06s-.051,0-.035.035c.015,0,.023.005.023.014s.016.011.048.011m.142.26c.064,0,.1-.014.1-.046-.032-.048-.062-.032-.1.046" transform="translate(-52.17 -16.149)" fill="#fff"/>
    <path id="Path_46" data-name="Path 46" d="M122.883,34.677c-.032.031-.023.055.024.071s.071.04.071.071c0,.16,0,.365-.011.618s-.016.518-.024.795-.012.547-.012.808v.676q-.024,1.21-.024,2.411t.024,2.268a2.24,2.24,0,0,0,.012.522c.024.175.051.333.082.475a.077.077,0,0,1,0,.082.481.481,0,0,0-.047.108L123,43.6a.022.022,0,0,0,.023.025.578.578,0,0,1,.143.094,1.9,1.9,0,0,1,.13.143.635.635,0,0,0,.132.119l.048.024a.664.664,0,0,0,.379-.06,1.654,1.654,0,0,1,.452-.13.091.091,0,0,1,.094.059.139.139,0,0,0,.072.082.058.058,0,0,0,0-.094c-.033-.032-.024-.055.023-.07a1.549,1.549,0,0,1,.463.07.653.653,0,0,1,.344.237.869.869,0,0,1,.119.618,1.049,1.049,0,0,1-.2.355.836.836,0,0,1-.605.286.059.059,0,0,1-.094,0c-.35-.064-.681-.111-1-.143s-.632-.062-.949-.1c-.032,0-.051.008-.06.024s-.028.024-.059.024a2.588,2.588,0,0,0-.665-.011c-.27.024-.5.044-.69.059-.143.016-.28.027-.414.035a3.781,3.781,0,0,0-.464.06c-.175.031-.372.054-.594.072a1.774,1.774,0,0,1-.595-.049.623.623,0,0,1-.416-.273.866.866,0,0,1-.105-.606.572.572,0,0,1,.105-.368.688.688,0,0,1,.238-.19.813.813,0,0,1,.261-.07c.088-.007.156-.012.2-.012q.189,0,.44.022c.166.017.335.039.51.072a.56.56,0,0,0,.452-.094,1,1,0,0,0,.284-.594,3.036,3.036,0,0,0,.131-.83c.008-.3,0-.594-.012-.879V36.279a2.6,2.6,0,0,0-.024-.368c-.048-.237-.09-.423-.131-.557a1.29,1.29,0,0,0-.224-.417.583.583,0,0,0-.451-.093c-.222.015-.412.031-.57.046h-.049a.762.762,0,0,1-.344.071,1.308,1.308,0,0,1-.368-.047c-.032-.064-.024-.1.025-.1a.123.123,0,0,1-.119.025.827.827,0,0,0-.119-.048.057.057,0,0,1-.036-.012.047.047,0,0,0-.035-.013,1.052,1.052,0,0,1-.131-.25.953.953,0,0,1-.06-.342,1.2,1.2,0,0,1,.071-.321.7.7,0,0,1,.143-.2.022.022,0,0,0,.025-.024l.285-.142.047-.024a2.213,2.213,0,0,1,.724-.071c.247.016.432.032.559.048a3.12,3.12,0,0,0,.38.071,3.4,3.4,0,0,0,.426.024c.206-.016.408-.035.607-.058s.368-.053.51-.085a.7.7,0,0,1,.439.108,1.024,1.024,0,0,1,.248.343c.016.1.033.214.049.356a1.659,1.659,0,0,1-.024.475c0,.017-.011.031-.035.047s-.036.008-.036-.023Zm-4.012,10.092c.031,0,.043-.011.035-.036a.107.107,0,0,1,.011-.084c-.031.016-.047.013-.047-.013s-.016-.017-.048.013c.063,0,.078.04.048.12m.071.212c.032,0,.049-.006.049-.022a.067.067,0,0,1,.023-.049h-.072Zm.334-.545c-.033-.047-.057-.063-.072-.047s.008.033.072.047m.094.617a.2.2,0,0,0,.119-.023.059.059,0,0,0-.072-.037.058.058,0,0,0-.047.06m.071-.569c.033.031.049.031.049,0s-.016-.032-.049,0m.144.165c0-.016,0-.022.011-.022s.011-.009.011-.025c-.016,0-.022,0-.022-.012s-.01-.011-.024-.011c-.033.048-.024.07.024.07m.237,0c0,.016.007.016.024,0,0-.016,0-.022.011-.022s.011-.009.011-.025h-.046Zm.142-.237a.2.2,0,0,1-.024-.083c0-.025-.016-.044-.047-.06a.094.094,0,0,0-.025.107.067.067,0,0,0,.1.036m-.024.094c.017.033.027.029.036-.011s0-.037-.036.011M121.672,29.5a1.255,1.255,0,0,1,.713.19,1.692,1.692,0,0,1,.475.475,1.024,1.024,0,0,1,.094.344,3.782,3.782,0,0,1,.025.438.38.38,0,0,1-.011.072.353.353,0,0,0-.013.071c-.031.08-.055.142-.071.19s-.039.111-.072.19a.17.17,0,0,0-.035.071.138.138,0,0,1-.036.072,1.293,1.293,0,0,1-.83.5,1.359,1.359,0,0,1-.476.011,1.168,1.168,0,0,1-.594-.3,1.5,1.5,0,0,1-.357-.44,1.905,1.905,0,0,1-.142-.534,1.3,1.3,0,0,1,.107-.56,1.607,1.607,0,0,1,.321-.439,1.855,1.855,0,0,1,.379-.248,1.154,1.154,0,0,1,.523-.107m-.855,14.366a.147.147,0,0,1-.035.094.164.164,0,0,0-.035.1.229.229,0,0,0,.165.071.272.272,0,0,0,.047-.156.177.177,0,0,0-.047-.131c0,.033-.011.039-.034.024s-.045-.015-.06,0m-.023.761c.031-.017.047-.009.047.022s.008.049.025.049a.075.075,0,0,1,.071-.083c.047-.008.071-.044.071-.108a.19.19,0,0,1-.107.059.214.214,0,0,0-.106.062m0,.426a.151.151,0,0,1,.094.071.1.1,0,0,0,.1.048.084.084,0,0,0,.095-.1c-.079-.032-.167-.063-.261-.1a.051.051,0,0,1-.011.037.048.048,0,0,0-.012.036m.332-1.258c0-.032-.019-.052-.06-.06s-.059,0-.059.011a.068.068,0,0,1,.047.024.1.1,0,0,0,.072.025m.023.853c.032-.031.037-.055.012-.07a.181.181,0,0,1-.06-.072c-.048.048-.032.1.048.143m-.071-1.067c0,.079.009.091.023.034s.008-.066-.023-.034m.048.687c.033-.031.06-.031.084,0s.042.033.059,0c-.032,0-.035-.011-.011-.035a.065.065,0,0,0,.011-.083.867.867,0,0,1-.119.048c-.048.015-.055.039-.023.071m.049-10.614c0-.048-.016-.071-.049-.071a.038.038,0,0,1,.012.047c-.008.016,0,.024.037.024m.071,9.451a.031.031,0,0,1,0-.049c.015-.015.007-.023-.024-.023,0,.048.008.072.024.072m.047,1.021c-.017-.048-.011-.08.011-.1s.02-.039-.011-.072a.064.064,0,0,0-.071.072.094.094,0,0,0,.071.1m.071.356c-.047-.048-.071-.039-.071.022-.032.033-.024.04.024.025s.064-.032.047-.047m.024.285a.1.1,0,0,1,.012-.06.046.046,0,0,0,.012-.035.07.07,0,0,0-.048-.024c-.031,0-.047.008-.047.024.031,0,.043.012.036.035s0,.044.034.06m-.046-4.725c.094,0,.142-.031.142-.1-.1-.016-.142.016-.142.1m.046,4.8h.048c0-.032-.016-.032-.048,0m.119-1.164a.083.083,0,0,1,.06-.023c.023,0,.028.023.011.071.1.033.143-.007.143-.119-.079.033-.123.029-.131-.011a.209.209,0,0,0-.058-.107.2.2,0,0,1-.012.143c-.024.063-.028.079-.013.047m0-2.66.1.047c0-.063.027-.078.083-.047s.091.016.107-.047c-.048.016-.072.007-.072-.024a.219.219,0,0,0-.023-.1c-.062,0-.1.021-.119.06a.3.3,0,0,1-.071.106m.071-6.98c0-.033.016-.048.049-.048a.042.042,0,0,0,.047-.047.076.076,0,0,0-.1.023c-.032.032-.032.055,0,.071m.119.26a.593.593,0,0,0,.19-.071.082.082,0,0,0-.108-.011.216.216,0,0,0-.082.083m.119,1.948a.16.16,0,0,0,.143-.071.163.163,0,0,0-.118-.047.188.188,0,0,1-.024.118m.1.428v-.048c-.016,0-.024,0-.024-.012s-.009-.012-.024-.012c0,.047.016.072.049.072m-.049,6.339c.032,0,.052.005.059.014a.284.284,0,0,0,.06.033.235.235,0,0,1-.023-.106.089.089,0,0,0-.047-.084c.015.049.011.076-.012.084a.054.054,0,0,0-.036.059m.024-5.745a.114.114,0,0,1,.106.059.2.2,0,0,0,.106.083.346.346,0,0,0,.119-.191.312.312,0,0,0-.129-.072.488.488,0,0,1-.155-.07.152.152,0,0,1-.023.083.189.189,0,0,0-.024.108m.024,4.2c.03.016.047.032.047.048s.016.023.047.023a.191.191,0,0,0,0-.131.2.2,0,0,1-.024-.105c-.047,0-.07.007-.07.023.03.016.038.035.023.06a.141.141,0,0,0-.023.082m.023-7.266c.032,0,.047,0,.047.012s.017.011.048.011a.076.076,0,0,1-.024-.059c0-.024-.015-.036-.047-.036a.1.1,0,0,1-.024.071m0,6.768a.593.593,0,0,1,.179.035.147.147,0,0,1,.105.154.148.148,0,0,0,.119-.1.066.066,0,0,1-.035-.082.068.068,0,0,0-.035-.083.3.3,0,0,1-.214-.071.177.177,0,0,1-.06.071.164.164,0,0,0-.059.071M122,36.837a.141.141,0,0,1-.012-.095c.007-.032,0-.04-.035-.023a.066.066,0,0,0-.012.071.056.056,0,0,0,.06.048m-.047,7.811c.032.033.055.049.071.049v-.071a.1.1,0,0,0-.071.022m.118-10.684c0-.032.008-.048.024-.048s.017-.015,0-.047c-.047,0-.07-.008-.07-.024,0,.1.015.134.046.119m-.023,2.707a.079.079,0,0,1,.071.036c.015.023.047.027.094.012a.23.23,0,0,1-.024-.108.222.222,0,0,0-.023-.106.15.15,0,0,1-.072.071.1.1,0,0,0-.047.1m.19,3.514c0-.063-.017-.088-.049-.072,0,.047.016.072.049.072m.047-3.277c-.016,0-.023-.011-.023-.035s-.016-.027-.049-.011a.08.08,0,0,0,.036.071c.024.017.036.008.036-.024m.143,3.348c-.032.017-.051.009-.06-.023s-.019-.031-.035,0c.016,0,.032.011.048.036s.032.02.047-.013m.048,4.25c.015,0,.023.009.023.025s.008.023.025.023a.3.3,0,0,1,.141-.071.211.211,0,0,1,.143,0,.69.69,0,0,1,.024-.179c.015-.055-.008-.091-.071-.106a.326.326,0,0,1-.13.167.507.507,0,0,0-.154.141m.285.1a.156.156,0,0,0,.107.012c.039-.008.067,0,.083.013,0,.126-.047.189-.143.189a.1.1,0,0,0-.081-.012c-.025.008-.045,0-.061-.036a.07.07,0,0,1,.012-.084c.024-.022.02-.043-.012-.058-.015.03-.062.03-.141,0a.187.187,0,0,0,.071.153c.049.041.049.1,0,.179a.33.33,0,0,0,.06.083c.023.023.051.019.082-.012-.047-.049-.072-.079-.072-.1a.29.29,0,0,1,.238-.083.168.168,0,0,0,.191-.106c-.017-.033-.036-.048-.06-.048s-.035-.016-.035-.049a.168.168,0,0,1,.1-.19c-.08.016-.147.033-.2.047a.231.231,0,0,0-.13.1m-.214-13.179c.048,0,.072-.006.072-.023a.1.1,0,0,0-.072.023m.025,4.725c0-.016.008-.022.023-.022V36.1h-.048c.033.032.041.047.025.047m0-1.709c.063.033.094.015.094-.048-.062,0-.094.016-.094.048m.048,6.173c.032-.062.032-.1,0-.1a.072.072,0,0,1-.024.049c-.015.015-.007.03.024.046m-.024,3.206c.095-.016.139.005.132.059a.122.122,0,0,0,.058.131.1.1,0,0,1,.023-.072.09.09,0,0,0,.024-.071.131.131,0,0,0-.105-.07.132.132,0,0,1-.108-.072.139.139,0,0,0-.024.1m.119-9.427a.138.138,0,0,1,.094.023v-.071a.138.138,0,0,0-.094.048m.19,9.617a.055.055,0,0,0-.059.035c-.009.024-.027.028-.06.013.016.078.051.1.106.058a.317.317,0,0,0,.108-.106.2.2,0,0,1-.059-.108.467.467,0,0,0-.036-.105.326.326,0,0,1-.012.105.2.2,0,0,0,.012.108m.1,1.021c0-.032.011-.049.035-.049s.036-.015.036-.046q-.049-.022-.071,0c-.016.017-.04.008-.071-.024.031.08.055.12.071.12m.143.047c-.016,0-.024,0-.024-.011s-.017-.012-.047-.012c-.017.033-.009.051.024.059s.047,0,.047-.035m.118-1.068c.032,0,.04.012.023.035s-.039.028-.07.013c0,.032.008.046.023.046s.016.017,0,.048c.063-.017.1-.011.106.011a.246.246,0,0,0,.059.084.125.125,0,0,0,.024-.131.3.3,0,0,0-.071-.13c.016.033,0,.036-.036.012s-.059-.02-.059.012m.286.427c-.016-.015-.025-.055-.025-.119a.339.339,0,0,1-.106-.012c-.025-.007-.052.005-.084.036-.016.048,0,.075.035.083a.554.554,0,0,1,.108.035c-.033.033-.024.064.023.1a.526.526,0,0,0,.225-.048c.071-.031.084-.1.036-.213a.077.077,0,0,0,.072-.048.221.221,0,0,0-.155.084.3.3,0,0,1-.13.106m.047.38.214.071c-.017-.032-.032-.063-.049-.1a.078.078,0,0,1,.023-.094.3.3,0,0,0-.083.06.287.287,0,0,1-.106.059m.071.237c.047.016.066.008.059-.023a.461.461,0,0,0-.035-.1c-.018.017-.024.056-.024.119m.664-.474c-.047,0-.071-.016-.071-.048a.041.041,0,0,0-.046-.047c.03.095-.008.139-.119.13a.188.188,0,0,0-.214.107c.062.016.1,0,.119-.037s.054-.051.118-.036a.13.13,0,0,0,.1.131.125.125,0,0,0,.142-.011.391.391,0,0,1-.072-.1c.033-.016.044-.031.037-.046s0-.025.035-.025a.106.106,0,0,0,.143.033c.064-.022.1.006.119.086,0-.016.015-.039.047-.072a.554.554,0,0,0-.166-.26c-.032.126-.087.19-.167.19m.452.451a.39.39,0,0,1,.214.118.1.1,0,0,0-.072-.131.125.125,0,0,0-.142.012" transform="translate(-64.186 -15.98)" fill="#fff"/>
    <path id="Path_47" data-name="Path 47" d="M138.223,48.13c.015-.031,0-.044-.059-.035s-.068-.012-.036-.06c.4.048.649-.156.758-.616a4.211,4.211,0,0,0,.083-.439,2.95,2.95,0,0,0,.012-.605V41.766q0-.546.023-1.057a4.3,4.3,0,0,0-.094-1.081c-.032-.078-.064-.161-.094-.25a.435.435,0,0,0-.143-.2.938.938,0,0,0-.367-.143,2.05,2.05,0,0,0-.369-.012c-.127.008-.26.021-.4.036a1.416,1.416,0,0,1-.452-.024,1.519,1.519,0,0,1-.473-.166c-.143-.078-.223-.261-.238-.547a.619.619,0,0,1,.166-.582,1.249,1.249,0,0,1,.5-.249,1.379,1.379,0,0,1,.426-.023c.112.016.3.039.572.071.11.016.218.037.32.06a.639.639,0,0,0,.321-.012c.031,0,.048,0,.048.012s.008.011.025.011l.475-.059.474-.06c.4-.062.649.033.759.286a.61.61,0,0,1,.1.3v.392c-.016.032-.044.039-.083.023s-.06-.008-.06.023a.379.379,0,0,1,.143.047V38.7c.031.016.063,0,.094-.035s.064-.044.1-.012a.05.05,0,0,1-.011.071c-.025.016-.029.048-.012.095.031.017.06,0,.083-.036a.078.078,0,0,0-.012-.106c.032-.015.072,0,.118.047.016-.062.016-.083,0-.059s-.038.019-.071-.012a.466.466,0,0,0,.095-.143.938.938,0,0,1,.048-.166c.032-.03.052-.038.06-.024s.036.017.083,0c.016-.031.011-.044-.012-.035s-.028-.011-.012-.06a.05.05,0,0,1,.036.012.047.047,0,0,0,.036.012q-.047-.094.094-.166a2.022,2.022,0,0,0,.215-.119,3.9,3.9,0,0,1,1.222-.641,7.63,7.63,0,0,1,.915-.214,5.19,5.19,0,0,1,1.4,0,4.79,4.79,0,0,1,1.473.451c.158.078.327.173.511.285a2.45,2.45,0,0,1,.463.356,1.456,1.456,0,0,0,.154.142.2.2,0,0,1,.06.071.063.063,0,0,0,.072.072.951.951,0,0,1,.236.285c0,.016.008.024.024.024l.025.023a.106.106,0,0,1,.022.072.042.042,0,0,0,.048.048l.024.022a1.39,1.39,0,0,0,.143.3,1.658,1.658,0,0,1,.142.3.135.135,0,0,1,.025.094.289.289,0,0,0,.035.154.583.583,0,0,1,.058.131,6.581,6.581,0,0,1,.168,1.508c0,.529-.008,1.073-.023,1.626v3.111c0,.222,0,.432.011.63a4.062,4.062,0,0,0,.059.557,1.334,1.334,0,0,0,.083.261.665.665,0,0,0,.13.214.451.451,0,0,0,.3.167,1.911,1.911,0,0,0,.51-.024.043.043,0,0,1,.048.048.5.5,0,0,1-.178.214c-.087.062-.083.142.012.237.048-.016.059-.044.036-.084a.143.143,0,0,1-.012-.131.163.163,0,0,0,.071-.06c.017-.023.04-.019.072.013-.032-.158.022-.242.165-.249a1.787,1.787,0,0,0,.381-.059.1.1,0,0,0,.047-.013.11.11,0,0,1,.049-.011.692.692,0,0,1,.475.2.875.875,0,0,1,.213.344.789.789,0,0,1-.095.618,1.476,1.476,0,0,1-.344.3,1.378,1.378,0,0,1-.582.132,3.664,3.664,0,0,1-.689-.061,5.384,5.384,0,0,0-.712-.082,7.274,7.274,0,0,0-.879-.049c-.317,0-.61.01-.879.024-.176,0-.384.012-.63.035a2.584,2.584,0,0,0-.509.083c-.113.016-.215.027-.311.035a.449.449,0,0,1-.237-.035,1.951,1.951,0,0,1-.57-.214l-.025-.023a.1.1,0,0,0-.059-.059.057.057,0,0,1-.035-.061v-.022a.126.126,0,0,1-.106-.154.32.32,0,0,0-.036-.2.063.063,0,0,1-.023-.048c0-.3.066-.495.2-.583a1.066,1.066,0,0,1,.511-.153,1.544,1.544,0,0,1,.724.07.82.82,0,0,0,.582.024.618.618,0,0,0,.285-.331,1.687,1.687,0,0,0,.141-.584c.018-.213.025-.445.025-.7a.069.069,0,0,1,.023-.047.059.059,0,0,0,.023-.047.417.417,0,0,0,0-.2.674.674,0,0,1-.023-.178,1.509,1.509,0,0,0,.023-.273.877.877,0,0,0-.047-.275V42.217c0-.3-.005-.578-.012-.832a2.9,2.9,0,0,0-.059-.568,4.452,4.452,0,0,0-.084-.44,2.522,2.522,0,0,0-.131-.345.07.07,0,0,1-.022-.046v-.048a.208.208,0,0,0-.072-.225,1.022,1.022,0,0,1-.166-.131.053.053,0,0,0-.012-.037c-.009-.007-.012-.027-.012-.059v-.1c-.031-.03-.059-.035-.083-.012s-.05.021-.083-.011a2.381,2.381,0,0,0-.7-.5,4.645,4.645,0,0,0-.962-.285,4.05,4.05,0,0,0-1,.023,4.829,4.829,0,0,0-.854.214,1.8,1.8,0,0,0-.594.32c-.159.135-.3.266-.427.392-.065.064-.127.123-.19.179a.388.388,0,0,0-.119.25.067.067,0,0,0-.024.046c-.032.016-.042.037-.035.059s0,.037-.035.037l-.025.025-.023.022a2.3,2.3,0,0,0-.143.416,1.8,1.8,0,0,1-.143.392v.094a.261.261,0,0,1,.024.119,10.023,10.023,0,0,0-.13,1.5q-.014.782-.013,1.542v1.651q0,.464.013.855c.007.262.02.455.035.582.032.095.067.214.107.356a.509.509,0,0,0,.2.309.434.434,0,0,0,.285.094,1.971,1.971,0,0,0,.357-.034c.126-.025.253-.051.379-.084a1.5,1.5,0,0,1,.357-.046q.687,0,.735.736.049.427-.13.557a2.5,2.5,0,0,1-.439.25,1.138,1.138,0,0,1-.392.035c-.165-.008-.353-.023-.56-.048s-.41-.051-.616-.082-.387-.057-.545-.072a9.408,9.408,0,0,0-1.425.012q-.642.059-1.4.154a.134.134,0,0,1-.094.024.367.367,0,0,0-.108-.024.222.222,0,0,0-.106.049,2.474,2.474,0,0,1-.3-.024,1.337,1.337,0,0,1-.345-.1.667.667,0,0,1-.285-.25.926.926,0,0,1-.118-.511.662.662,0,0,1,.225-.57.817.817,0,0,1,.559-.141,1.772,1.772,0,0,1,.45.082,1.2,1.2,0,0,0,.475.059.5.5,0,0,0-.095.191.151.151,0,0,0,.095-.071c.016-.033.063-.039.143-.025m-.9-10c0-.079-.015-.111-.047-.095-.017.032,0,.062.047.095m.072-.143c.031.032.047.032.047,0s-.016-.032-.047,0m.5.166c-.048-.03-.068-.03-.06,0s.028.032.06,0m.4,9.925c.016.033.024.028.024-.012s-.008-.035-.024.012m1.211-9.688c-.033,0-.048.008-.048.023.032,0,.048-.007.048-.023m-.024-.783c.016.064.027.071.037.024s0-.056-.037-.024m.143.167c.031,0,.064-.057.094-.167-.031,0-.046,0-.046-.011s-.018-.021-.049-.036a.255.255,0,0,1,0,.214m.049,6.932c.015.032.027.032.035,0s0-.031-.035,0m.118-4.915c.064,0,.1-.016.119-.048a.1.1,0,0,1-.083-.047c-.024-.032-.012-.056.035-.072-.032,0-.051-.011-.059-.035s-.028-.027-.059-.011v.106a.144.144,0,0,0,.047.107m.166,3.989c-.047,0-.071.008-.071.024.047.048.071.038.071-.024m-.047-6.2A.1.1,0,0,0,140,37.54a.106.106,0,0,1-.083.012c-.024-.008-.027,0-.012.036m0,2.3c0,.08.008.09.024.037s.008-.069-.024-.037m.047,3.87a.075.075,0,0,0,.072-.048c.015-.031.007-.048-.024-.048Zm.1-5.556v.048c.031.016.048.007.048-.024s-.008-.038-.024-.023c0,.017-.008.017-.024,0m.024,1.8c0,.016-.005.021-.012.013s-.012,0-.012.011a.021.021,0,0,0,.024-.023m.072-1.258c-.032,0-.048.008-.048.024.031,0,.048-.008.048-.024m-.048.5c.016.033.024.028.024-.011s-.008-.036-.024.011m.024,1.331a.649.649,0,0,1,.522.094.1.1,0,0,1,.047-.12.132.132,0,0,0,.1.049.114.114,0,0,1-.011-.131c.023-.039.044-.076.059-.107a.081.081,0,0,1-.072-.035c-.015-.023-.046-.028-.094-.011,0,.031.018.051.06.059s.05.035.034.083l-.022.024v.023c-.079-.031-.135-.039-.166-.023a.714.714,0,0,1-.167.048.43.43,0,0,1-.023-.1c0-.015-.032-.015-.1,0,0-.048-.031-.087-.1-.118a.216.216,0,0,1-.011.166.592.592,0,0,0-.059.1m.048,4.487a.042.042,0,0,0-.048-.048c0,.048.015.063.048.048m.022-4.226a.041.041,0,0,0-.046-.048.042.042,0,0,0,.046.048m.049,4.44c.016-.047.008-.075-.024-.082s-.032-.037,0-.084c-.047,0-.071.01-.071.025a.068.068,0,0,1,.035.082c-.008.04.011.059.06.059m-.036-7.431c-.007,0-.013.008-.013.023h.025c0-.015,0-.023-.012-.023m.129.522c-.03,0-.047.008-.047.023.032,0,.047-.007.047-.023m0,.878c.08-.032.12-.019.12.036s.039.083.119.083L140.5,39.3c-.017-.016-.009-.039.024-.072a.065.065,0,0,1-.024-.047.388.388,0,0,0-.119.024c-.049.015-.063.031-.049.046m0-.5h.072c0-.031-.023-.039-.072-.024Zm.024,1.14c-.015-.016-.024-.016-.024,0a.021.021,0,0,1,.024.024Zm-.024.428c0,.031.01.046.024.046s.024.018.024.048c.062-.03.1-.03.119,0v-.094a.068.068,0,0,1-.083-.012q-.034-.034-.084.012m.144-1.355v-.118c-.017.033-.033.037-.048.012s-.039-.028-.072-.012c.033.08.072.118.12.118m.119,1.045c.015-.031.01-.05-.012-.06a.123.123,0,0,1-.06-.035c0,.032.008.051.024.059a.206.206,0,0,1,.048.035m-.024-1.021a.3.3,0,0,0,.143.142.07.07,0,0,0,.024-.048.191.191,0,0,1,.022-.07.217.217,0,0,0-.082-.06c-.023-.008-.044-.037-.059-.083.016.032.007.047-.023.047s-.041.026-.024.072m.071,2.066c.016.033.024.028.024-.011s-.008-.036-.024.011m.1-.379c-.032.031-.048.039-.048.023h.024a.022.022,0,0,0,.024-.023m.142-1.568a.084.084,0,0,1,.119-.035c.049.025.072,0,.072-.083a.123.123,0,0,1-.108,0,.121.121,0,0,0-.106,0,.089.089,0,0,1-.012.059c-.008.008,0,.029.035.059m-.023.143c.032.033.047.033.047,0s-.015-.032-.047,0m.047.95c-.032,0-.047.008-.047.025.032,0,.047-.009.047-.025m.048-.095c-.033,0-.048.008-.048.025.032,0,.048-.009.048-.025m0,.071c.015.049.023.051.023.012s-.008-.044-.023-.012m.023-1.4c.032.016.047,0,.047-.035s.016-.059.049-.059c-.032.016-.049.006-.049-.024a.042.042,0,0,0-.047-.048c-.033.033-.033.06,0,.082s.032.052,0,.084m.1,1.355v-.166c-.049,0-.072.026-.072.083s.024.083.072.083m.072-.166a.043.043,0,0,1-.049-.049.042.042,0,0,0-.047-.048.059.059,0,0,0,.024.083c.03.024.055.029.072.014m.379-1.735c0,.064-.015.095-.047.095a.232.232,0,0,0-.1-.023.5.5,0,0,1-.142.095.154.154,0,0,1-.165,0,.1.1,0,0,1-.024.072.156.156,0,0,1,.141.071c.032.048.071.048.119,0-.032,0-.048-.012-.048-.036s.016-.043.048-.06a.134.134,0,0,0,.1.048h.143c.031-.015.031-.035,0-.06s-.033-.043,0-.058c.031-.031.05-.036.059-.013a.054.054,0,0,0,.06.036.111.111,0,0,1,.083-.083c.04-.007.059-.044.059-.107-.016,0-.024,0-.024-.011s-.015-.012-.047-.012a.094.094,0,0,1-.094.047Zm-.095.38a.04.04,0,0,1-.012-.048c.009-.015-.011-.015-.06,0-.014.033-.014.048,0,.048s.017.015,0,.048a.126.126,0,0,0-.106,0c-.024.016-.052.009-.083-.023,0,.033,0,.048-.012.048s-.011.016-.011.047c.046-.016.071-.011.071.012s.032.044.094.059q0-.071.047-.071c-.031.048-.035.077-.011.083a.056.056,0,0,1,.035.059.16.16,0,0,1-.119.047.1.1,0,0,0,.024.072.094.094,0,0,1,.024.071.069.069,0,0,1-.083.036.066.066,0,0,0-.082.034c.03,0,.046.02.046.06s.016.059.048.059a2.87,2.87,0,0,1,.238-.333.594.594,0,0,1,.356-.189c-.033-.062-.033-.1,0-.119a.15.15,0,0,0,.071-.071l-.142.071c0-.032-.049-.048-.143-.048a.081.081,0,0,1-.048.108.1.1,0,0,1-.119-.012c-.016-.033,0-.048.036-.048s.043-.016.011-.048-.042-.027-.035.012,0,.051-.035.036m-.261,1.068c.079.017.122.008.13-.024s.036-.047.083-.047c.015-.142-.02-.185-.106-.131a.188.188,0,0,0-.107.2m.048-1.472a.366.366,0,0,1-.025.118.212.212,0,0,1,.1-.059.1.1,0,0,0,.071-.06c-.031-.015-.05-.02-.059-.011s0,0,.012-.036a.136.136,0,0,0-.094.047m.4-.285c.047.032.071.032.071,0s-.024-.031-.071,0m.023.143c.032-.015.048-.007.048.024a.042.042,0,0,0,.047.048c0-.017.012-.02.035-.012s.028,0,.012-.035a.108.108,0,0,1-.059-.06c-.007-.024-.027-.035-.059-.035,0,.032,0,.048-.011.048s-.012.008-.012.023m.119.427h.022c.033-.031.028-.048-.012-.048s-.05.017-.035.048Zm0-.475a.1.1,0,0,0,.083.012c.024-.006.044,0,.059.036-.016.032-.035.036-.059.012s-.027-.012-.011.036c.079,0,.119-.016.119-.048a.511.511,0,0,1-.071-.082.108.108,0,0,0-.1-.037.051.051,0,0,1-.012.037.047.047,0,0,0-.011.034m.094.357c.048-.016.075-.007.083.023a.056.056,0,0,0,.06.048c.016-.078.059-.1.13-.071a.214.214,0,0,1,.131.118.077.077,0,0,1,.023-.048c.017-.016.017-.039,0-.071l-.142-.094c-.046-.033-.094-.017-.142.046a.13.13,0,0,1-.012-.095c.007-.031,0-.038-.035-.023.032.063.024.1-.023.118s-.072.033-.072.049m.048.427c.032.032.06.035.083.012a.321.321,0,0,0,.06-.083.194.194,0,0,1-.083.024c-.024,0-.045.016-.06.048m.191-.1c.03.033.054.036.071.012s.023-.02.023.011c-.064,0-.094.024-.094.071a.227.227,0,0,1,.142.059c.046.04.087.037.118-.012-.1,0-.143-.031-.143-.094.047,0,.07-.008.07-.024-.015-.031-.035-.044-.058-.037a.049.049,0,0,1-.059-.01.059.059,0,0,0,.012-.061c-.008-.023,0-.034.035-.034a.021.021,0,0,1,.024.023c0,.015.016.024.046.024a1.061,1.061,0,0,1,.262-.166.189.189,0,0,0-.083-.024c-.025,0-.045-.016-.06-.048a.264.264,0,0,1-.214.143.221.221,0,0,1-.07.082.06.06,0,0,0-.024.084m.046-1.068c.033.032.044.032.037,0s-.021-.032-.037,0m.1.284c.031-.031.035-.058.011-.082s-.011-.037.035-.037a.134.134,0,0,0,.06.037c.024.008.035-.013.035-.059a.141.141,0,0,1-.082-.025.118.118,0,0,0-.107,0,.078.078,0,0,1,.024.1.046.046,0,0,0,.024.071m.118-.237h-.024c.047-.015.071,0,.071.047a.252.252,0,0,0,.083-.011.259.259,0,0,1,.083-.012.151.151,0,0,0-.107-.118.3.3,0,0,1-.131-.071c-.032.016-.027.032.011.047s.052.039.035.071h-.071a.1.1,0,0,0,.024.071c.016.015.024.008.024-.024m.071.689c0-.063-.008-.094-.023-.094a.055.055,0,0,0-.035.07c.009.033.027.04.059.025m-.048-.522v.118c.048,0,.068-.016.06-.048s.013-.023.061.024a.172.172,0,0,1-.025-.082c0-.024-.015-.037-.048-.037,0,.016-.015.025-.048.025m.1.474h.1c0,.033.007.049.025.049a.133.133,0,0,0-.025-.094.1.1,0,0,0-.1.046m.025-.5c.031.033.042.033.034,0s-.02-.031-.034,0m0,10.5a.1.1,0,0,0,.046.095.1.1,0,0,1,.024-.059c.016-.024.007-.044-.024-.059a.071.071,0,0,1-.046.023m.046-.095c.064-.032.072-.048.024-.048s-.056.016-.024.048m.049-10.733c-.018,0-.025.008-.025.025h.048c0-.017-.008-.025-.023-.025m0,.262a.129.129,0,0,0,.094.012.057.057,0,0,0,.048-.06c-.048,0-.071-.008-.071-.024-.033-.032-.041-.047-.024-.047,0,.032-.009.052-.024.059s-.023.027-.023.06m.023.713a.02.02,0,0,0-.023.023h.047a.022.022,0,0,0-.024-.023m.119-.9a.043.043,0,0,0-.048-.047.042.042,0,0,0,.048.047m0,10.591c-.032.031-.048.038-.048.023.031,0,.048-.008.048-.023m-.024-9.808c.079,0,.118.033.118.1a.132.132,0,0,0,.095-.025c.016-.03.016-.046,0-.046s-.016-.016,0-.049c-.031.033-.051.041-.059.024a.4.4,0,0,0-.06-.07c-.015.031-.036.044-.059.034s-.035.005-.035.035m0,.143c.015.033.028.033.035,0s0-.031-.035,0m.237,9.807h-.024c-.031,0-.047-.009-.047-.025s-.016-.023-.048-.023a.045.045,0,0,1-.013.035.053.053,0,0,0-.011.036.056.056,0,0,1,.06.036.107.107,0,0,0,.059.059c-.016-.063-.008-.095.024-.095a.079.079,0,0,0,.072-.048.1.1,0,0,1-.083-.047c-.024-.032-.044-.032-.06,0a.072.072,0,0,0,.047.024c.016,0,.024.016.024.048m-.119-10.639a.358.358,0,0,0,.143.048c.016-.031,0-.06-.048-.083s-.08-.012-.095.035m.143.759c0-.03.007-.046.025-.046s.023-.007.023-.025c-.032-.015-.056-.011-.072.011s-.008.044.024.059m0-.806a.048.048,0,0,1,.035.012c.009.009.028.012.06.012-.033-.064-.055-.1-.071-.1a.1.1,0,0,1-.025.071m.048.189c0-.03.006-.042.023-.034a.037.037,0,0,1,.024.034c.016-.063,0-.094-.047-.094.015.031.012.052-.013.06s-.019.019.013.034m.047,10.52c-.017.08-.011.091.013.036s.018-.068-.013-.036m.071-10.709c.031.031.043.031.035,0s-.019-.032-.035,0m.047-.165c.016,0,.025.023.025.071a.254.254,0,0,0,.118-.1.112.112,0,0,1-.106,0c-.024-.015-.037-.008-.037.025m.047.877a.093.093,0,0,1,.072-.011c.015.009.024,0,.024-.034a.142.142,0,0,0-.1.046m.072-.213h.024c.032-.033.027-.048-.012-.048s-.051.008-.036.024Zm.189-.286c0-.031-.015-.046-.047-.046a.04.04,0,0,1,.012.046c-.008.016,0,.016.034,0m.1,0v.048c.03.016.052.008.059-.023s0-.039-.035-.025c0,.016-.009.016-.024,0m.4-.166c.031-.016.039,0,.024.036s-.008.052.025.035c0-.032.007-.05.022-.059s.024-.029.024-.06c-.064,0-.095.016-.095.047m.189.4c.017.032.024.028.024-.011s-.007-.037-.024.011m.168.095c0-.03,0-.047.012-.047s.012-.016.012-.048h-.049c-.032.048-.023.079.025.095m0-.617c.047,0,.072-.016.072-.048-.017,0-.024-.007-.024-.023h-.047Zm0,.284v.025c.031.031.05.028.059-.012s0-.052-.035-.037c0,.018-.008.024-.024.024m.19,10.876a.14.14,0,0,1,.036-.071c.023-.032.011-.047-.036-.047a.1.1,0,0,1-.023.071c-.017.015-.008.033.023.048m-.023-10.828h.023v.047h-.023Zm.023.119a.3.3,0,0,1,.178.011c.072.024.091.068.06.132a.1.1,0,0,0,.036-.095.1.1,0,0,1,.035-.1c-.032.016-.064-.016-.095-.094a.168.168,0,0,1-.143-.025.137.137,0,0,1-.023.1.227.227,0,0,0-.047.071m.141,11.066c.017.032.028.032.037,0s0-.033-.037,0m.262-11.184c.032-.015.056-.015.072,0s.033.008.048-.023c-.048-.049-.088-.039-.12.023m0,11.231c.049,0,.072-.015.072-.046-.047-.049-.072-.033-.072.046m.308-10.8c0,.065,0,.072.012.023s0-.055-.012-.023m.144-.213c.046.015.077.012.093-.012a.2.2,0,0,1,.072-.06c0-.031-.02-.034-.059-.012s-.052,0-.035-.083h-.071a.162.162,0,0,1,0,.167m.023.331c.064.017.1.012.107-.01a.111.111,0,0,1,.059-.06c-.015,0-.023-.006-.023-.024a.021.021,0,0,0-.023-.023c0,.033-.02.047-.059.047s-.06.025-.06.071m.094-.165c0-.048-.007-.071-.024-.071-.016.016-.006.04.024.071m.048-.333a.131.131,0,0,0,.095-.047c-.063-.015-.072-.035-.024-.06s.055-.05.024-.083c-.031,0-.047-.008-.047-.023a.32.32,0,0,0-.071.106.093.093,0,0,0,.023.107m0-.428h.048c.032-.032.023-.054-.024-.071a.09.09,0,0,1-.023.071m.023.785c.033.015.056.011.072-.013a.182.182,0,0,1,.071-.06.5.5,0,0,0-.143.072m.072-.666a.136.136,0,0,1,.071.118c.033,0,.048-.039.048-.118-.048-.032-.088-.032-.119,0m.071.736c.048-.015.079-.011.1.011a.147.147,0,0,0,.07.059c.03-.03.047-.053.047-.071-.031-.015-.072-.03-.117-.047a.068.068,0,0,0-.1.047m.1-.807c.029.031.041.031.034,0s-.02-.032-.034,0m.046.427c.032,0,.04.016.024.047s-.008.041.023.025a.4.4,0,0,1,.119-.12.168.168,0,0,0-.167.048m.1.522c-.033,0-.049.008-.049.023.031,0,.049-.007.049-.023m.118-.69c.016,0,.04-.038.071-.118a.267.267,0,0,1-.071-.047.1.1,0,0,0-.072-.024c-.031.047-.035.083-.011.107s.05.052.082.082m-.072,1.022a.135.135,0,0,0,.094-.047c-.063,0-.094.016-.094.047m.072-.166a.424.424,0,0,1,.1.012.1.1,0,0,0,.095-.035.154.154,0,0,1-.084-.024.9.9,0,0,0-.084-.048.155.155,0,0,0-.022.1m.1-.713a.084.084,0,0,0,.095-.094.084.084,0,0,0-.095.094m0,.879c.031,0,.046.008.046.023.033.017.052.012.061-.012s.026-.028.059-.011c-.017-.031-.012-.055.012-.071s.019-.031-.012-.048a.43.43,0,0,1-.1.036c-.033.007-.055.035-.071.083m.141-.95c.032.062.056.075.072.035s-.007-.05-.072-.035m.072,1.163c.015-.015.015-.039,0-.072-.016-.015-.04.009-.072.072.065.016.1.047.1.095a.214.214,0,0,1,.237.048c-.049-.064-.032-.11.047-.143-.047-.015-.055-.039-.023-.072s.023-.054-.024-.069a.244.244,0,0,1-.261.141m.191,10.068a.022.022,0,0,1,.022-.024c.033,0,.049,0,.049.012s.008.012.024.012c.015-.046-.008-.071-.072-.071.017.016.008.029-.022.035s-.033.021,0,.035m0-10.9c.03.017.051,0,.058-.047s0-.071-.036-.071a.2.2,0,0,0-.022.118m.166-.071h0M146.723,49.2c.015.031.024.031.024,0s-.009-.032-.024,0m.024-.071c.016,0,.025.007.025.023a.134.134,0,0,0,.093-.048c-.079-.031-.117-.024-.117.025m.071-10.4c-.033.032-.046.039-.046.024a.072.072,0,0,0,.046-.024m.118.831c.016-.032.005-.048-.035-.048s-.059.008-.059.024c.031,0,.047,0,.047.011s.016.012.047.012m.025-.452c.015.08.027.092.036.036s0-.066-.036-.036m.094.476a.11.11,0,0,0-.035-.083c-.023-.025-.044-.021-.059.011.031-.017.046,0,.046.035s.016.052.048.037m.024-.357c.015.033.024.028.024-.012s-.009-.035-.024.012m.119,1.639c.031.032.049.032.049,0s-.017-.032-.049,0m.119-.428h-.047a.039.039,0,0,1,.035.023c.007.016.012.008.012-.023m-.024.237c.032.015.049,0,.049-.037s-.017-.049-.049-.034Zm.024,2.54c.048-.049.05-.071.013-.071s-.044.022-.013.071m.1-1.851c.032-.017.035-.036.01-.061s-.043-.019-.058.012a.023.023,0,0,1,.024.025c0,.016.006.024.023.024m-.048.165.095.048a.081.081,0,0,0,0-.083.15.15,0,0,1-.024-.083c-.046-.016-.071.024-.071.118m.048,2.589a.136.136,0,0,0,.118-.071h-.071c-.016,0-.031.023-.047.071m.047,1.519v-.071c-.031.016-.047.032-.047.048s.016.023.047.023m-.024-4.677a.107.107,0,0,0,.084.059.086.086,0,0,0,.083-.012.075.075,0,0,1-.083-.071.224.224,0,0,0-.06-.118q.023.071,0,.082c-.016.008-.024.028-.024.06m.048.451c.047-.016.068,0,.06.036s0,.052.035.035.039-.035.024-.059a.077.077,0,0,1,0-.083.022.022,0,0,1-.024-.025c0-.016-.016-.016-.048,0,0,.032,0,.049-.011.049s-.02.016-.036.047m.143,1.187c-.016-.016-.033-.032-.048-.048s-.048-.015-.095,0c0,.033.022.056.071.071s.072.01.072-.022m-.023-2.921a.022.022,0,0,0-.024.025.022.022,0,0,0,.024-.025m.071,4.155-.048-.047c-.016.033-.012.056.012.072s.035.008.035-.025m-.048-5.2c.016.033.025.033.025,0s-.009-.031-.025,0m.12,1h-.072c-.017.048,0,.072.036.072s.05-.025.036-.072M147.7,43.4a.186.186,0,0,0,.12-.037.458.458,0,0,1,.119-.06c-.08.033-.1,0-.072-.094.047,0,.072-.007.072-.024a.182.182,0,0,0-.2.024.152.152,0,0,0-.037.191m0,3.846a.18.18,0,0,0,.025.119c0-.079.024-.111.071-.094a.476.476,0,0,0,.143.023c0-.031-.01-.047-.025-.047s-.023-.015-.023-.047a.192.192,0,0,1-.107.011c-.024-.009-.052,0-.084.035m.025-.9c.016-.031.032-.035.047-.012s.032.021.048-.012c0-.079-.016-.118-.048-.118a.077.077,0,0,1-.047.072c-.033.015-.033.039,0,.07m.024.642a.076.076,0,0,1,.022-.049c.017-.015.007-.03-.022-.047a.118.118,0,0,1-.024.06c-.017.024-.008.035.024.035m-.024-7.385c.016.032.024.029.024-.012s-.008-.035-.024.012m.047.57c-.031,0-.047.009-.047.024.032,0,.047-.008.047-.024M147.72,45c0,.015.016.027.047.036a.059.059,0,0,0,.072-.036c-.048,0-.068-.025-.059-.071s-.013-.072-.06-.072a.087.087,0,0,1,.012.072.161.161,0,0,0-.012.071m.071-5.96a.021.021,0,0,0-.024.024c0-.015,0-.022.013-.012s.011,0,.011-.012m.048,6.673c.031.031.031.027,0-.012s-.033-.036,0,.012m-.024-2.114a.065.065,0,0,0,.094.012.088.088,0,0,1,.1-.012c.032.079.062.119.095.119a.084.084,0,0,1,.1-.094c-.048-.08-.1-.111-.165-.1a1.674,1.674,0,0,0-.215.071m.024-3.23h.048c.016-.031.007-.05-.024-.059s-.04,0-.024.036c.015,0,.015.008,0,.023m.071.215c.033-.033.027-.048-.012-.048s-.058.007-.058.022Zm.1,5.461c-.031,0-.056-.025-.071-.071s-.048-.049-.1,0a.1.1,0,0,1,.083.058c.024.039.052.044.083.012m-.1-.713c0-.031.012-.048.036-.048s.035-.015.035-.047a.106.106,0,0,0-.083.047c-.022.033-.019.048.012.048m0-4.915c.015.033.025.029.025-.011s-.01-.037-.025.011m.071,1.022a.132.132,0,0,0-.046-.094.115.115,0,0,1,.011.083c-.009.023,0,.029.035.011m-.046,2.612c.032.064.046.071.046.023s-.015-.055-.046-.023m.023.1c-.033.048-.023.063.023.048s.04-.032-.023-.048m.072-1.662a.159.159,0,0,1,.141-.035.428.428,0,0,1,.142.035c0-.064-.039-.088-.118-.071s-.135,0-.165-.049c.015.031.01.055-.012.071s-.021.033.012.049m0,2.469a.046.046,0,0,0,.07-.023c.016-.032.016-.046,0-.046-.016.03-.035.042-.06.033s-.027,0-.01.036m.07-2.3v-.072c-.048,0-.07.009-.07.025.031-.016.042-.007.035.022s0,.041.035.025m0-2.232a.038.038,0,0,0-.024-.035c-.016-.008-.024.006-.024.035.015-.017.024-.017.024,0s.008.016.024,0m.024,3.752c.032.047.047.051.047.011s-.016-.043-.047-.011m0,3.325c.032-.032.039-.025.024.024s-.009.071.023.071a.211.211,0,0,0,.024-.094c0-.032-.024-.055-.072-.071Zm.047-6.53.048-.048c-.016,0-.023-.007-.023-.024h-.048q0,.071.023.072m0,2.446c-.016.046,0,.068.048.06s.064,0,.049.035c-.049.047-.049.111,0,.188a.279.279,0,0,0-.12.263.425.425,0,0,1,.19.117.194.194,0,0,0,.047-.142c-.079,0-.118-.015-.118-.048a.133.133,0,0,0,.059-.048.128.128,0,0,1,.059-.047.907.907,0,0,1,.011-.154.587.587,0,0,0,.012-.13.113.113,0,0,1-.119-.1.021.021,0,0,0-.023-.024c0,.016-.033.024-.1.024m0,2.944c.048,0,.072-.008.072-.024-.048,0-.072.01-.072.024m.1-2.255c-.033,0-.049.007-.049.023a.072.072,0,0,0,.049-.023m-.049.308h.049a.044.044,0,0,0-.049-.048Zm0,.143a.038.038,0,0,1,.049-.011c.015.007.015,0,0-.037h-.049Zm0,1.044h.166c.015-.047-.008-.074-.072-.083s-.094.021-.094.083m.049-2.327c.015,0,.023.025.023.071.032,0,.063-.031.095-.095-.032.017-.056.017-.072,0s-.031-.006-.046.024m.023,3.728c.032,0,.055-.028.071-.083s.007-.082-.023-.082a.194.194,0,0,0-.025.082.2.2,0,0,1-.023.083m.189-3.562c0-.048-.032-.071-.094-.071-.032.032-.032.059,0,.082a.064.064,0,0,0,.094-.011m0,1.211c0-.016-.015-.029-.046-.037a.059.059,0,0,0-.072.037.194.194,0,0,1,.072.024c.031.015.046.006.046-.024m0,.165c.016.065.008.1-.024.1a.075.075,0,0,0-.071.048c.032.033.086.033.165,0s.1-.078.049-.143Zm0-1.518c.016.046.025.051.025.011s-.009-.043-.025-.011m.785,5.983c0-.048-.008-.071-.024-.071-.046.047-.039.071.024.071m.213-.617c.016.033.023.027.023-.011s-.007-.037-.023.011" transform="translate(-73.867 -20.078)" fill="#fff"/>
    <path id="Path_48" data-name="Path 48" d="M182.863,33.2a1.545,1.545,0,0,1,.451,1,1.353,1.353,0,0,1-.085.736,3.742,3.742,0,0,1-.319.522,1.08,1.08,0,0,1-.853.332c-.128-.03-.24-.059-.334-.083a.863.863,0,0,1-.332-.2,1.374,1.374,0,0,1-.215-.416.554.554,0,0,1,.1-.534c.079-.111.141-.193.189-.25a1.76,1.76,0,0,1,.189-.178V34.1a.841.841,0,0,0-.13-.143l-.178-.142c-.016-.032-.008-.044.024-.036a.057.057,0,0,0,.071-.035c-.08-.016-.179-.032-.3-.047a.508.508,0,0,1-.3-.143h-.071a.368.368,0,0,1-.165.059,1.325,1.325,0,0,0-.239.06,3.087,3.087,0,0,0-.367.131.721.721,0,0,0-.345.343,2.156,2.156,0,0,0-.179.4,1.666,1.666,0,0,0-.059.475v.19c.047.031.19.143.428.333a3.666,3.666,0,0,1,.4.368,1.6,1.6,0,0,1,.285.44.775.775,0,0,1,.2.248c.055.1.114.219.177.345a3.593,3.593,0,0,1,.226.784,4.031,4.031,0,0,1,.083.665,3.173,3.173,0,0,1-.129,1.068,4.657,4.657,0,0,1-.37.879c-.126.173-.258.344-.391.51a3.983,3.983,0,0,1-.582.559c-.11.079-.233.161-.368.248a2.457,2.457,0,0,1-.368.2c-.11.049-.261.1-.452.168s-.346.11-.473.141a4.25,4.25,0,0,1-.819.142,5.775,5.775,0,0,1-.89-.023,5.886,5.886,0,0,1-.713-.107,3.237,3.237,0,0,1-.618-.178.155.155,0,0,1,.048-.131.829.829,0,0,0,.095-.082.139.139,0,0,0-.024-.082.163.163,0,0,1-.024-.084.185.185,0,0,1-.13.189c-.088.033-.114.088-.083.167-.158-.047-.352-.12-.58-.214a6.037,6.037,0,0,0-.584-.213.889.889,0,0,0-.806.213,1.329,1.329,0,0,0-.238.38.863.863,0,0,0-.071.523,1.139,1.139,0,0,0,.511.712,2.346,2.346,0,0,0,.843.285q.355.047,1.033.083t1.293.012a5.962,5.962,0,0,1,.985.035c.324.039.566.068.725.082.22.033.436.056.642.072a.947.947,0,0,1,.522.19.135.135,0,0,0,.1.048.182.182,0,0,0,.13,0,.34.34,0,0,1,.132-.024h.071a4.977,4.977,0,0,1,.772.3,7.177,7.177,0,0,1,.7.391.142.142,0,0,1,.047.1l.023.024c0,.016.009.023.025.023.047,0,.072.016.072.047a.313.313,0,0,0,.129.143c.055.032.115.063.179.094a.076.076,0,0,1,.024.048.5.5,0,0,0,.071.118.856.856,0,0,1,.3.322,2.061,2.061,0,0,0,.248.368v.048l.024.046c0,.064-.012.1-.036.119s-.02.048.012.1c0,.047.016.071.047.071a.1.1,0,0,1,.085.059.472.472,0,0,0,.083.107.048.048,0,0,0,.011.036.1.1,0,0,1,.013.059,2.223,2.223,0,0,1,0,.428c-.017.126-.034.292-.049.5v.1a.208.208,0,0,1,.024.071.064.064,0,0,0,.024.047v.071a2.318,2.318,0,0,1-.394,1.033,6.887,6.887,0,0,1-.51.583,2.8,2.8,0,0,1-.5.4,5.4,5.4,0,0,1-.618.379,4.054,4.054,0,0,1-.688.273c-.237.071-.5.148-.783.226q-.142.025-.368.071c-.151.033-.312.06-.485.083s-.353.039-.535.048-.352.012-.511.012a.851.851,0,0,1-.213-.024c-.064-.015-.127-.032-.189-.048a4.817,4.817,0,0,0-.5.025,4.723,4.723,0,0,1-.474.023,5.344,5.344,0,0,1-.7-.048c-.246-.03-.478-.071-.7-.118s-.419-.1-.6-.142a2.487,2.487,0,0,1-.355-.119,1.541,1.541,0,0,1-.357-.121c-.142-.062-.285-.134-.427-.213s-.281-.159-.416-.236a1.735,1.735,0,0,1-.3-.214,4.223,4.223,0,0,1-.5-.486,2.681,2.681,0,0,1-.379-.653,2.622,2.622,0,0,1-.227-.855,4.083,4.083,0,0,1,.037-.925,1.714,1.714,0,0,0,.071-.226,1.255,1.255,0,0,1,.071-.226,3.621,3.621,0,0,1,.463-.724,2.994,2.994,0,0,1,.773-.607c.078-.047.177-.1.3-.165a3.276,3.276,0,0,1,.368-.166v-.048a2.977,2.977,0,0,0-.356-.167,1.836,1.836,0,0,1-.4-.214,3.327,3.327,0,0,1-.69-.617,1.782,1.782,0,0,1-.426-1.091,2.03,2.03,0,0,1,.167-1.08,1.984,1.984,0,0,1,.4-.582,2.6,2.6,0,0,1,1.187-.713.139.139,0,0,1,.1-.048.136.136,0,0,0,.1-.048,2,2,0,0,1-.31-.51,2.226,2.226,0,0,1-.165-.464,3.107,3.107,0,0,1-.143-.783,3.441,3.441,0,0,1,.072-.877,2.056,2.056,0,0,1,.072-.3c.03-.1.063-.2.094-.3a2.388,2.388,0,0,1,.3-.582,5.532,5.532,0,0,1,.391-.487,3.569,3.569,0,0,1,.926-.76,3.787,3.787,0,0,1,1.164-.475,5.521,5.521,0,0,1,1.354-.166,6.377,6.377,0,0,1,.664.036,4.229,4.229,0,0,1,.736.154,2.072,2.072,0,0,1,.082-.605,5.718,5.718,0,0,1,.2-.558,1.8,1.8,0,0,1,.379-.522,1.589,1.589,0,0,1,.594-.38,1.509,1.509,0,0,1,.641-.214,3.209,3.209,0,0,1,.737-.047,2.684,2.684,0,0,1,.652.024c.167.032.359.078.581.143a1.668,1.668,0,0,1,.5.261,3.757,3.757,0,0,1,.451.379M171.7,46.33a.029.029,0,0,1,.047,0v-.047c-.015,0-.022,0-.022-.013s-.015-.011-.048-.011c0,.048.008.071.024.071m.4,2.659a.2.2,0,0,1-.059-.036.1.1,0,0,0-.06-.011c-.032.046-.02.07.035.07s.083-.007.083-.023m.166-2.4a.062.062,0,0,0-.071-.071c0,.032.008.046.024.046a.069.069,0,0,1,.047.025m.308,3.11a.307.307,0,0,0-.059-.047c-.023-.015-.035,0-.035.047a.049.049,0,0,1,.071.014c.016.022.023.018.023-.014m.119-3.371c.032-.031.028-.051-.011-.06s-.06,0-.06.037a.046.046,0,0,1,.036.012.058.058,0,0,0,.035.011m4.7-.973c-.237-.015-.5-.025-.794-.025a7.117,7.117,0,0,0-.842.048l-.511.07a5.932,5.932,0,0,0-.629.12,6.468,6.468,0,0,0-.616.225,3.218,3.218,0,0,0-.523.272,1.618,1.618,0,0,0-.831,1.212,1.732,1.732,0,0,0,.036.569,1.49,1.49,0,0,0,.225.452,1.338,1.338,0,0,0,.476.474c.189.112.331.2.427.262a.95.95,0,0,0,.224.131,3.075,3.075,0,0,0,.523.167c.23.054.518.105.868.153a9.766,9.766,0,0,0,1.282.071,8.056,8.056,0,0,0,1.4-.106,5.627,5.627,0,0,0,1-.26,4.02,4.02,0,0,0,.654-.309c.165-.1.287-.187.369-.249a2.87,2.87,0,0,0,.5-.4l.024-.047c0-.094.015-.151.047-.166v-.047a.289.289,0,0,1-.012-.131.715.715,0,0,0,.012-.154.162.162,0,0,0,.108.012.652.652,0,0,1,.129-.012l.024-.024a1.2,1.2,0,0,0-.166-.142c-.016-.046-.009-.071.023-.071s.039-.017.023-.048a.074.074,0,0,0-.071-.048.076.076,0,0,1-.071-.047,1.263,1.263,0,0,0-.118-.522c.078-.015.127-.008.142.025a.159.159,0,0,0,.095.071.114.114,0,0,0,.035-.108.211.211,0,0,0-.059-.106.061.061,0,0,1-.1,0,.16.16,0,0,0-.118-.048.081.081,0,0,0-.012.071c.008.016-.005.024-.036.024a1.385,1.385,0,0,0-.4-.5,4.752,4.752,0,0,0-.476-.332c.031-.063.094-.079.19-.048s.15.008.166-.071a.1.1,0,0,1-.071.023c-.064,0-.088-.032-.072-.094,0-.08.033-.1.095-.048s.1.032.12-.048a.079.079,0,0,0-.1-.06.172.172,0,0,1-.12-.012.139.139,0,0,0-.011.1c.008.031,0,.046-.036.046-.1-.031-.155-.02-.177.037a.3.3,0,0,1-.108.13,5.592,5.592,0,0,0-2.138-.474m-4.558-.667a.1.1,0,0,0,.1-.046c-.033,0-.047,0-.047-.012s-.008-.012-.024-.012c0,.017-.005.025-.012.025s-.011.017-.011.046m.071-4.843v.071c.048.015.071.008.071-.025a.075.075,0,0,1,.049-.071.189.189,0,0,0-.119.024m.071.451c0,.079.009.091.025.035s.007-.066-.025-.035m.1.452c0-.079-.016-.121-.047-.121a.086.086,0,0,0-.049.084c0,.04.032.052.1.037m-.024,4.321a.05.05,0,0,1,.036.011c.007.008.028.012.059.012a.058.058,0,0,0-.047-.059c-.031-.007-.048.005-.048.036m.024-4.82c.032.031.052.027.059-.012a.069.069,0,0,0-.035-.083.145.145,0,0,0-.023.1m.593,1.139c0-.063-.015-.1-.048-.1,0,.081.016.112.048.1m-.048,3.4v.025h.048c.032-.032.022-.049-.024-.049a.021.021,0,0,1-.024.024m.07.357a.472.472,0,0,0-.035.118.135.135,0,0,0,.035.119.461.461,0,0,1,.108-.19c.056-.062.068-.119.036-.166-.032.11-.079.151-.144.12m0-5.107c.033-.031.061-.034.083-.011s.037.011.037-.035c-.016.016-.045.016-.083,0s-.052,0-.037.046m.025,5.534c.032,0,.047-.008.047-.024-.031,0-.047.008-.047.024m.143-.784c.014-.047-.008-.071-.072-.071a.064.064,0,0,0,.072.071m.093.832v.046a.022.022,0,0,1,.025.025.155.155,0,0,0,.035-.06c.008-.024,0-.035-.035-.035a.022.022,0,0,1-.025.025m.049-5.841v.046c.031.016.052.008.06-.024s-.005-.047-.036-.047c0,.016-.008.025-.023.025m.118-4.323c.046,0,.071-.02.071-.059a.153.153,0,0,1,.048-.108c-.048.016-.086.072-.119.167m0,9.546c.063,0,.1-.023.1-.071-.016,0-.049.024-.1.071m0,.118q.025.047.025,0t-.025,0m3.372-8.928a2.524,2.524,0,0,0-.545-.083c-.189-.008-.365-.011-.523-.011a.451.451,0,0,1-.118-.048c-.047.031-.107.068-.178.105a.17.17,0,0,1-.2-.01.4.4,0,0,1-.261.165,1.729,1.729,0,0,0-.332.118,2.6,2.6,0,0,0-.451.334,2.717,2.717,0,0,0-.38.4,1.739,1.739,0,0,0-.238.462c-.047.152-.087.3-.118.441a2.336,2.336,0,0,0,.379,1.686.691.691,0,0,1,.142.237l.1.046a.177.177,0,0,1,.072.072l.024.047c.03.033.051.044.058.035s.027,0,.058.013a.077.077,0,0,1,.025.06c0,.023.015.035.047.035a.517.517,0,0,1,.238.118,1.762,1.762,0,0,0,.606.238,2.814,2.814,0,0,0,.487.071.646.646,0,0,1,.178.025.8.8,0,0,0,.2.022h.046a.635.635,0,0,1,.273-.082.627.627,0,0,0,.274-.083h.071a.722.722,0,0,0,.227-.036.444.444,0,0,1,.225-.012h.024a.58.58,0,0,0,.273-.13,1.478,1.478,0,0,1,.3-.2c.016,0,.032-.012.047-.036a.182.182,0,0,1,.071-.058h.1a.075.075,0,0,0,.022-.049,1.279,1.279,0,0,1,.379-.4c.033,0,.049-.032.049-.1a1.7,1.7,0,0,1,.1-.3,2.21,2.21,0,0,0,.094-.3,2.415,2.415,0,0,0,.059-.475,2.463,2.463,0,0,0-.037-.546,1.751,1.751,0,0,0-.3-.723,2.314,2.314,0,0,0-.344-.416,2.971,2.971,0,0,0-.582-.369c-.213-.1-.424-.193-.629-.272m-3.276,8.928c.047,0,.072-.007.072-.024-.048-.047-.072-.039-.072.024m.4-4.867h.048c0-.048-.015-.055-.048-.025Zm.1.236a.147.147,0,0,1,.012.1.056.056,0,0,0,.035.071c.048-.016.075-.018.083-.012s.028.029.059.059a.506.506,0,0,1-.011-.189c.006-.047-.021-.088-.084-.12a.142.142,0,0,1-.048.06.145.145,0,0,0-.048.034m.1.665a.046.046,0,0,0,.071.024.047.047,0,0,0,.023-.071.141.141,0,0,0-.094.047m.165,3.942a.189.189,0,0,1-.071-.023c-.031-.016-.046-.016-.046,0a.093.093,0,0,1,.058.035c.024.023.043.021.058-.012m-.022,5.177c.016-.032,0-.056-.036-.071s-.058-.008-.058.023c.03.048.061.063.094.048m-.024-9.26c0,.032.016.039.047.024s.056-.017.072,0c.016-.033,0-.056-.047-.071s-.072,0-.072.047M175,41.3c.015.081.027.092.037.036s-.005-.066-.037-.036m.047,4.013a.043.043,0,0,1,.048.049.041.041,0,0,0,.047.046.153.153,0,0,0,.011-.106c-.008-.04-.036-.052-.083-.035,0,.031-.007.046-.024.046m.618-4.013a.275.275,0,0,0-.154,0,.356.356,0,0,1-.178,0c0,.033-.009.052-.024.06s-.024.027-.024.06a.239.239,0,0,0,.084.059c.023.009.027.035.012.083a.407.407,0,0,1,.425-.048l.049-.048c.015-.031.015-.055,0-.071a.09.09,0,0,1-.024-.071c-.079.032-.12.023-.12-.025a.1.1,0,0,0-.047-.095c.016.033.02.052.013.06a.046.046,0,0,0-.013.035m-.356-.166c.031,0,.048.008.048.023s.016.024.047.024a.054.054,0,0,1,.012-.035c.007-.008,0-.027-.012-.059a.066.066,0,0,1-.047.023.07.07,0,0,0-.048.024m.024,3.55c.015-.009.007-.019-.024-.036v.071a.037.037,0,0,1,.024-.035m.071-3.765c.049.033.087.033.119,0a.156.156,0,0,0,.048-.119c-.1.033-.151.072-.167.119m.049.9c.015.048.022.052.022.013s-.006-.044-.022-.013m.4-.165c.03.031.046.031.046,0s-.016-.032-.046,0m.046-.547v-.07a.036.036,0,0,1-.024.035c-.016.008-.007.02.024.035m.1.381c-.016.032-.012.043.01.034a.063.063,0,0,1,.061.012c0-.046-.009-.071-.025-.071,0,.048-.015.057-.046.025m.094-.262a.187.187,0,0,0,.119.023c0-.063-.024-.1-.071-.1-.016.016-.025.028-.025.035a.061.061,0,0,1-.023.037m.119.9c.08,0,.119-.032.119-.095-.079,0-.119.031-.119.095m.024-.238c.062.095.136.11.213.048a.337.337,0,0,0-.024-.143c0,.079-.023.106-.071.082a.1.1,0,0,0-.119.013m.072-6.721a.22.22,0,0,0,.142,0,.218.218,0,0,1,.143,0,.317.317,0,0,1,0-.166.556.556,0,0,0-.166.024.158.158,0,0,1-.142-.024c-.031.031-.035.06-.011.083a.118.118,0,0,1,.035.083m.189,6.506.071-.07a.057.057,0,0,1-.06-.035c-.007-.024-.035-.028-.083-.012,0,.095.024.134.072.117m.095.143c.016,0,.025,0,.025.013s.008.011.024.011c0-.047-.016-.062-.049-.047Zm.095-6.22c.031-.017.049-.017.049,0s.016.015.046,0a.055.055,0,0,0,.012-.06c-.008-.023,0-.044.035-.06-.063-.031-.115-.012-.154.06s-.035.091.011.06m.143-.262a.121.121,0,0,0,0-.107c-.016-.039-.048-.051-.094-.036-.033.095,0,.143.094.143m.237-.641v.095a.072.072,0,0,1,.06-.048c.023,0,.043-.015.059-.047-.033-.016-.052-.016-.059,0s-.028.016-.06,0m.072,15.434c0-.063-.024-.095-.072-.095a.208.208,0,0,1,.024.084c0,.023.016.027.049.011m.022-9.046c.032,0,.049,0,.049-.012s.016-.012.047-.012c.016-.047,0-.066-.059-.06s-.068.037-.037.084m.237-6.008c-.015,0-.03-.015-.046-.047s-.024-.031-.024,0a.065.065,0,0,0,.024.047.028.028,0,0,0,.046,0m.453,5.818a.8.8,0,0,0,.012.154.1.1,0,0,1-.061.106c-.08-.015-.151-.027-.214-.035a.251.251,0,0,0-.167.035.273.273,0,0,1,0,.226,1.261,1.261,0,0,0-.071.226.171.171,0,0,0,.19.023.214.214,0,0,0,.12-.142.148.148,0,0,1-.155-.1.136.136,0,0,1,.059-.166h.226a.6.6,0,0,1,.224.048.167.167,0,0,1-.083-.2,1.359,1.359,0,0,1,.06-.178c0,.031-.02.047-.06.047a.085.085,0,0,1-.082-.047M177.425,36c.033,0,.044-.008.035-.024a.04.04,0,0,1,.013-.047h-.049Zm.192.1a.085.085,0,0,0-.1-.1.06.06,0,0,0,.023.082c.032.025.056.029.072.013m.118,4.891c.016-.016.007-.047-.023-.094a.078.078,0,0,0-.024.06c0,.024.015.034.047.034m.1-.165c-.031,0-.047.008-.047.023.031,0,.047-.009.047-.023m.451,1.212c-.017-.033-.017-.052,0-.06s.024-.028.024-.059a.267.267,0,0,0-.19-.049.186.186,0,0,0,.165.168m-.07-6.864c.062,0,.087-.016.07-.048-.048,0-.07.017-.07.048m.165,5.6c.031,0,.047-.022.047-.071s-.016-.072-.047-.072a.149.149,0,0,0-.035.072.055.055,0,0,0,.035.071m.166-4.32c.064,0,.084-.025.059-.072a.2.2,0,0,0-.083-.094c.032.032.04.06.024.083a.076.076,0,0,0,0,.083m0,5.248c.032,0,.048,0,.048.012s.008-.005.024-.037c-.016-.016-.039-.007-.071.025m.1-1.022c.016-.049,0-.071-.048-.071,0,.047.016.071.048.071m.024-5.224a.049.049,0,0,1,.035.011.046.046,0,0,0,.037.012.168.168,0,0,0,.023-.19c-.079,0-.119.01-.119.025.049.015.066.034.059.059a.646.646,0,0,1-.035.083m.236,6.268a.406.406,0,0,0-.211-.117.149.149,0,0,0,.211.117m.025-.926a.1.1,0,0,0,.024.072c.016.016.016.039,0,.071a.14.14,0,0,0,.106-.036.148.148,0,0,1,.108-.035c.047.046.088.063.118.046.049-.015.071-.062.071-.143-.046.016-.079.01-.094-.022a.161.161,0,0,0-.072-.072.207.207,0,0,1-.131.059.235.235,0,0,0-.131.059m.024.476a.325.325,0,0,1,.046.38h.095a.822.822,0,0,0,.049-.309c0-.127-.064-.149-.19-.071m.071-.856c0,.033.008.053.024.061a.036.036,0,0,1,.024.035c.062-.032.11-.035.143-.012s.071.019.119-.013a.106.106,0,0,0-.119-.119.344.344,0,0,0-.19.047m.119-4.3a.273.273,0,0,0,.142.094q.095-.118-.011-.191c-.072-.047-.115-.015-.13.1m.118,8.737a.054.054,0,0,0,.059-.036.114.114,0,0,1,.06-.059.049.049,0,0,1-.036-.011.05.05,0,0,0-.035-.011.156.156,0,0,0-.048.118m.119-3.466a.2.2,0,0,1-.025-.082c0-.026-.015-.037-.046-.037-.033.032-.009.071.071.119M179.3,41.2a.551.551,0,0,1,.118.072.245.245,0,0,1,.19-.237c0-.049-.032-.071-.1-.071,0,.079-.027.106-.083.082a.191.191,0,0,1-.106-.082.767.767,0,0,0-.024.236m.071-1.021a.021.021,0,0,1,.023-.023c0-.047-.016-.055-.048-.023,0,.032.009.046.025.046m0,.334c.015.03.027.027.036-.012s0-.035-.036.012m.023-4.632.024.025c0-.048-.009-.062-.024-.048Zm.071,4.632c.033,0,.048,0,.048-.012s.01-.013.024-.013c0-.063.007-.1.025-.119-.049-.047-.088-.062-.119-.047a.535.535,0,0,0,.022.191m.072.379c0-.032.039-.048.119-.048a.071.071,0,0,1,.036.084c-.008.038,0,.058.035.058.031-.063.1-.078.191-.047a.074.074,0,0,0-.06-.083c-.04-.008-.06-.035-.06-.084a.317.317,0,0,1-.178,0,1.583,1.583,0,0,1-.155-.071c0,.128.024.191.072.191m-.024-1.923a.519.519,0,0,0,.083.071c.024.016.029.064.012.142.032.016.067.033.107.049a.188.188,0,0,0,.131,0,.883.883,0,0,1-.036-.083.288.288,0,0,1-.012-.083c-.048.016-.078.008-.093-.025a.185.185,0,0,1-.025-.095.56.56,0,0,0-.012-.108.158.158,0,0,0-.035-.083.144.144,0,0,1-.083.094c-.04.017-.051.056-.036.12m.024-3.277h.048c0-.032-.016-.032-.048,0m.119,4.56c.016-.016.006-.039-.023-.072,0,.048.008.072.023.072m.049-3.633c-.018,0-.025,0-.025-.013s-.008-.012-.024-.012c-.031.032-.029.048.011.048s.052-.008.037-.023m.046,1.258c-.015,0-.023,0-.023-.011s-.016-.012-.047-.012c-.017.033-.008.052.025.06s.046,0,.046-.036m-.071-4.819a.106.106,0,0,1,.06.059.055.055,0,0,0,.059.035c.064-.094.039-.143-.071-.143Zm.095,4.083h-.048c.016,0,.023.008.023.025s.008.008.024-.025M179.8,36c0-.032,0-.079.012-.143s0-.1-.035-.117c-.032.14-.024.229.023.26m0,.545c.015,0,.027-.015.037-.047s0-.047-.037-.047a.072.072,0,0,0-.023.047c0,.033.008.047.023.047m0-2.848.048.1c0-.064-.016-.1-.048-.1m.1,11.349c-.032,0-.044-.007-.035-.023s0-.024-.036-.024c-.016.032-.012.055.012.071s.043.007.059-.024m.024-8.192c0-.016-.033-.039-.1-.071,0,.031.008.047.024.047a.193.193,0,0,1,.071.023m-.071,8.43c.047,0,.071-.031.071-.094-.08,0-.1.032-.071.094m0-12.015c.047.032.067.029.06-.01s-.028-.037-.06.01m.022,2.851a.1.1,0,0,1,.06.071.057.057,0,0,0,.06.048.26.26,0,0,0-.071-.237c0,.033-.01.052-.024.059s-.025.028-.025.06m.025,3.68a.217.217,0,0,1,.059.083.23.23,0,0,0,.06.083c0-.016.023-.023.071-.023a.328.328,0,0,1,.13-.286.345.345,0,0,0,.154-.214c-.031.032-.059.036-.082.012a.3.3,0,0,1-.059-.083.417.417,0,0,1-.333.427m.024,5.248a.4.4,0,0,0,.118.047c-.016-.047-.012-.078.013-.094a.082.082,0,0,0,.035-.071c-.033-.031-.06-.059-.083-.082s-.012-.051.035-.084a.2.2,0,0,0-.118-.023.068.068,0,0,0-.012.071.138.138,0,0,1-.012.094h.143c.015.1-.023.143-.118.143m0-11.516a.054.054,0,0,0,.059-.036c.008-.023,0-.043-.035-.059a.044.044,0,0,1-.012.036c-.008.007-.011.029-.011.059m.071,7.076h.071c-.016-.032-.016-.052,0-.059s.016-.029,0-.06a.082.082,0,0,0-.071.036.077.077,0,0,0,0,.083m.048.143c0,.079.008.09.023.035s.008-.068-.023-.035m.023-3.847a.167.167,0,0,0,.12,0v-.12c-.047-.032-.083-.032-.108,0a.128.128,0,0,0-.012.12m.262-.286a.216.216,0,0,0-.095-.156,1.072,1.072,0,0,1-.143-.082c.031.063.059.115.083.155a.22.22,0,0,0,.154.084m-.12-3.611c.031.033.061.03.084-.011a.215.215,0,0,0,.036-.107h-.095c.015.032.015.051,0,.06s-.025.028-.025.058m.1.143a.08.08,0,0,0-.035-.072c-.024-.015-.036-.008-.036.023a.022.022,0,0,1,.023.025c0,.016.016.024.048.024m-.048,3.918c.016.032.028.032.036,0s0-.033-.036,0m.072,12.252a.117.117,0,0,0-.012.131.6.6,0,0,0,.083.106c.016-.031.051-.044.108-.035s.083,0,.083-.035a.094.094,0,0,0-.071.023.055.055,0,0,0-.036-.059c-.025-.008-.037-.027-.037-.06a.134.134,0,0,0,.1-.046c.031-.032.024-.055-.022-.071,0,.031-.064.047-.191.047m.046-4.274v-.071H180.3a.063.063,0,0,0,.071.071m0-7.194a.02.02,0,0,0-.023.023h.048c0-.016-.008-.023-.024-.023m.049,1.281a.022.022,0,0,0-.024.025h.047a.022.022,0,0,0-.023-.025m.048,5.7c-.048,0-.072.009-.072.023.047.048.072.041.072-.023m-.025-6.79c.033.031.045.031.037,0s-.021-.033-.037,0m.049.83c-.033,0-.045-.011-.037-.037s0-.034-.012-.034a.327.327,0,0,0,.012.071c.009.031.022.031.037,0m.118-.973a.177.177,0,0,0,.131.048.176.176,0,0,1,.13.048.156.156,0,0,1,0,.165.1.1,0,0,0,.023.143.583.583,0,0,0,.059-.2,1.744,1.744,0,0,0,.012-.225.148.148,0,0,0-.166-.048.544.544,0,0,0-.19.072m.094,11.4c.064.033.075.072.037.12a.352.352,0,0,1-.108.094.092.092,0,0,0,.13-.011.159.159,0,0,0,.06-.108c.063.033.11.025.143-.022s.025-.079-.024-.1c-.015.08-.05.1-.106.06s-.1-.053-.131-.038m0-10.708c.031,0,.049,0,.049.012s.007.011.022.011c0-.031,0-.046.011-.046s0-.009-.034-.025Zm.214,6.648c-.015.032-.015.047,0,.047s.024.016.024.048c-.047.08-.1.088-.166.025,0,.063.024.083.071.059a.286.286,0,0,1,.12-.035c0-.079.017-.127.049-.143a.067.067,0,0,1-.061-.023c-.008-.016-.02-.007-.036.023m-.047.69c.015.079.037.158.06.236a.345.345,0,0,1-.013.237.1.1,0,0,0,.073-.107.1.1,0,0,1,.071-.106c-.128-.064-.15-.139-.071-.227a.144.144,0,0,1,.236-.011.063.063,0,0,0-.071-.071c-.047,0-.063-.039-.047-.118-.064.031-.1.023-.118-.025s-.039-.055-.073-.023c.065.016.079.052.048.107a.283.283,0,0,1-.095.108m0,2.824c.032-.016.047-.016.047,0s.016.023.048.023a.11.11,0,0,0,.025-.118c-.049,0-.088.031-.12.095m.167-3.49a.122.122,0,0,1,.061.023c.022.016.041.008.058-.023-.017,0-.024-.033-.024-.1-.031,0-.063.033-.094.1m.071,1.33a.382.382,0,0,1,.047.154.659.659,0,0,1-.024.154.08.08,0,0,0,.106.012c.04-.024.077-.044.107-.06a.161.161,0,0,1-.095-.154.448.448,0,0,1,.047-.2.154.154,0,0,1-.094-.035.066.066,0,0,0-.095.011.113.113,0,0,1,.06.071c.007.033-.012.049-.06.049m.023,1.947a.048.048,0,0,1,.036.012c.007.007.027,0,.059-.012a.13.13,0,0,0-.048-.094c0,.03-.007.046-.023.046s-.024.017-.024.049m.189-.428c-.078-.016-.1-.011-.083.012s.052.02.083-.012m.024-.332c-.016.08-.011.09.011.035s.021-.067-.011-.035m.262-1.164a.134.134,0,0,0,.047-.094c-.063.016-.105.011-.13-.013a.149.149,0,0,0-.107-.035.3.3,0,0,0,.191.143m-.191.309a.112.112,0,0,0,.061.105c.038.025.043.052.012.083.109-.032.165-.087.165-.165-.063.015-.1,0-.105-.049s-.045-.064-.108-.048c0,.048-.009.072-.024.072m.309,1.021c0,.079.032.1.094.059s.112-.044.144-.012a.071.071,0,0,1,0-.082c.014-.025.007-.036-.025-.036-.032.047-.1.071-.214.071m.119-1.638h-.049l-.022.023c.046,0,.071-.008.071-.023m.046-11.66a.222.222,0,0,1,.239-.165c-.016-.08-.079-.118-.19-.118a.565.565,0,0,1-.071.141.1.1,0,0,0,.022.142m.405.214a.091.091,0,0,0-.083-.011.161.161,0,0,1-.106-.011c-.017.046.012.071.083.071s.106-.016.106-.049m-.071-.949c0,.016.016.039.047.071.033-.032.049-.055.049-.071-.031,0-.044-.008-.037-.024s0-.016-.035,0Zm.071,1.069c-.032.032-.032.047,0,.047s.032-.015,0-.047m.024-1.568a.1.1,0,0,0,.071-.023c-.048,0-.071.006-.071.023m.451,1.329c.032,0,.044.017.035.048a.3.3,0,0,0-.011.071c.062,0,.11-.048.143-.142-.064-.063-.119-.056-.167.023m.286-.308c-.017.015-.024.015-.024,0a.021.021,0,0,0-.023-.023c-.048.03-.051.063-.011.094s.058.008.058-.071" transform="translate(-92.483 -17.542)" fill="#fff"/>
    <path id="Path_49" data-name="Path 49" d="M98.4,19.175V15.8h-.7v-.632h1.522v.55a1.465,1.465,0,0,1,1.183-.614,1.41,1.41,0,0,1,1.4.88,1.534,1.534,0,0,1,1.375-.88c.981,0,1.6.642,1.6,1.925v2.146h.7v.632h-1.522V17.213c0-.99-.349-1.43-.973-1.43-.54,0-.816.532-.99,1.045a1.546,1.546,0,0,1,.009.2v2.146h.688v.632h-1.513V17.213c0-.99-.349-1.43-.972-1.43-.523,0-.844.55-.99,1.082v2.31h.7v.632H97.7v-.632Z" transform="translate(-52.925 -8.182)" fill="#fff"/>
    <path id="Path_50" data-name="Path 50" d="M118.056,15.123a1.983,1.983,0,0,1,1.531.624v-.569h.825v4.007h.706v.632h-1.531v-.569a1.991,1.991,0,0,1-1.531.614,2.123,2.123,0,0,1-2.072-2.384,2.108,2.108,0,0,1,2.072-2.356M116.836,17.5a1.491,1.491,0,0,0,1.44,1.651,1.332,1.332,0,0,0,1.311-1.018V16.875a1.332,1.332,0,0,0-1.311-1.018,1.482,1.482,0,0,0-1.44,1.641" transform="translate(-62.828 -8.192)" fill="#fff"/>
    <path id="Path_51" data-name="Path 51" d="M130.6,13.053a1.973,1.973,0,0,1,1.54.66V11.925h-.715V11.3h1.54v5.813h.7v.632h-1.522v-.605a2.057,2.057,0,0,1-1.54.651,2.123,2.123,0,0,1-2.072-2.384,2.108,2.108,0,0,1,2.072-2.356m-1.219,2.374a1.491,1.491,0,0,0,1.44,1.651,1.316,1.316,0,0,0,1.32-1.046v-1.21a1.343,1.343,0,0,0-1.32-1.036,1.482,1.482,0,0,0-1.44,1.641" transform="translate(-69.621 -6.122)" fill="#fff"/>
    <path id="Path_52" data-name="Path 52" d="M143.287,15.123a2.05,2.05,0,0,1,2.164,2.255c0,.092-.018.413-.018.513h-3.521a1.486,1.486,0,0,0,1.55,1.257,2.038,2.038,0,0,0,1.559-.743l.211.669a2.477,2.477,0,0,1-1.926.788,2.2,2.2,0,0,1-2.283-2.384,2.2,2.2,0,0,1,2.264-2.356m1.458,2.127a1.373,1.373,0,0,0-1.43-1.448,1.449,1.449,0,0,0-1.44,1.448Z" transform="translate(-76.392 -8.192)" fill="#fff"/>
    <path id="Path_53" data-name="Path 53" d="M159.305,11.3V13.7a2.071,2.071,0,0,1,1.539-.642,2.1,2.1,0,0,1,2.063,2.356,2.116,2.116,0,0,1-2.063,2.384,2.058,2.058,0,0,1-1.539-.651v.6h-1.522v-.632h.7V11.926h-.7V11.3Zm0,4.731a1.313,1.313,0,0,0,1.319,1.045,1.5,1.5,0,0,0,1.44-1.65,1.487,1.487,0,0,0-1.44-1.641,1.358,1.358,0,0,0-1.319,1.035Z" transform="translate(-85.47 -6.123)" fill="#fff"/>
    <path id="Path_54" data-name="Path 54" d="M170.144,15.875v-.632H172.4v.632h-.642l1.183,3.328,1.21-3.328h-.642v-.632h2.246v.632h-.77l-1.76,4.6a1.24,1.24,0,0,1-1.293.981,2.546,2.546,0,0,1-.889-.165l.156-.651a1.819,1.819,0,0,0,.714.156.675.675,0,0,0,.605-.449l.175-.468h-.257l-1.522-4.006Z" transform="translate(-92.166 -8.257)" fill="#fff"/>
    <path id="Path_55" data-name="Path 55" d="M84.4,37.51H18.755a18.755,18.755,0,0,1,0-37.51H84.4a18.755,18.755,0,1,1,0,37.51M18.755.917a17.838,17.838,0,0,0,0,35.677H84.4A17.838,17.838,0,1,0,84.4.917Z" fill="#fff"/>
    <path id="Path_56" data-name="Path 56" d="M37.51,37.51H18.755a18.755,18.755,0,0,1,0-37.51H37.51ZM18.755.917a17.838,17.838,0,0,0,0,35.677H36.593V.917Z" fill="#fff"/>
    <path id="Path_57" data-name="Path 57" d="M28.3,21.8c.04-.066.068-.11.1-.154a7.526,7.526,0,0,1,2.689-2.606,6.077,6.077,0,0,1,2.365-.765,6.251,6.251,0,0,1,4.862,1.446,6.013,6.013,0,0,1,2.042,3.543,7.038,7.038,0,0,1,.117,1.431,14.066,14.066,0,0,1-.176,2.176,8.943,8.943,0,0,1-1.505,3.708,15.675,15.675,0,0,1-1.884,2.171c-.863.847-1.774,1.641-2.687,2.433-1.649,1.429-3.3,2.853-4.9,4.339-.3.281-.6.565-.9.847l-.113.1c-.032-.025-.06-.044-.085-.067-1.922-1.83-3.928-3.565-5.932-5.3-.957-.829-1.911-1.662-2.805-2.561a14.23,14.23,0,0,1-1.825-2.185,8.844,8.844,0,0,1-1.323-3.317,12.744,12.744,0,0,1-.2-2.8,6.136,6.136,0,0,1,4.689-5.82A6.415,6.415,0,0,1,26.237,19.5,7.759,7.759,0,0,1,28.2,21.643c.028.045.057.089.1.154" transform="translate(-8.732 -9.871)" fill="#ffdf00"/>
  </g>
</svg>
